<?xml version="1.0" encoding="UTF-8"?>
<svg version="1.1" xmlns="http://www.w3.org/2000/svg" width="608" height="504">
<path d="M0 0 C200.64 0 401.28 0 608 0 C608 166.32 608 332.64 608 504 C407.36 504 206.72 504 0 504 C0 337.68 0 171.36 0 0 Z " fill="#EA4235" transform="translate(0,0)"/>
<path d="M0 0 C7.86504838 4.49431336 7.86504838 4.49431336 10.953125 6.9609375 C11.64446533 7.50733887 12.33580566 8.05374023 13.0480957 8.61669922 C13.77472412 9.19693848 14.50135254 9.77717773 15.25 10.375 C21.52509045 15.32223128 27.86044537 20.16086799 34.3125 24.875 C41.10180563 29.84029218 47.82148555 34.88665692 54.5 40 C61.11938274 45.0666281 67.77503207 50.07435459 74.5 55 C82.1214867 60.58229293 89.64505411 66.28354788 97.14648438 72.02587891 C103.8274298 77.1306858 110.57799414 82.13332462 117.35888672 87.10424805 C135.20966832 100.20966832 135.20966832 100.20966832 138 103 C138.09800708 106.00877287 138.12991464 108.99461693 138.12025452 112.00379944 C138.12153854 113.43493073 138.12153854 113.43493073 138.12284851 114.89497375 C138.12451434 118.12799907 138.1189629 121.3609735 138.11352539 124.59399414 C138.11321931 126.93699613 138.11335211 129.2799982 138.11389065 131.62300014 C138.11411725 137.921432 138.10830373 144.21984501 138.10128021 150.5182724 C138.09560301 156.4193681 138.09531806 162.32045913 138.09460449 168.22155762 C138.08934836 185.50187426 138.07538733 202.78218736 138.0625 220.0625 C138.041875 258.651875 138.02125 297.24125 138 337 C247.56 337 357.12 337 470 337 C469.68319739 260.30531809 469.68319739 260.30531809 469.27929688 183.61108398 C469.24316406 168.78918457 469.24316406 168.78918457 469.2364502 161.85389709 C469.22898636 157.00224132 469.19896686 152.15128339 469.15539551 147.29981995 C469.10056874 141.11327917 469.08406118 134.9277548 469.09542179 128.74099362 C469.09304591 126.46936901 469.07715225 124.1977093 469.04627895 121.92629325 C469.00650866 118.85801654 469.01605801 115.79369304 469.03796387 112.72532654 C469.00301189 111.39057329 469.00301189 111.39057329 468.96735382 110.02885532 C469.04084305 106.20231277 469.23895668 103.90500217 471.75306034 100.91533101 C473.76392101 99.13490054 475.80362478 97.54306642 478 96 C478.86625 95.33613281 479.7325 94.67226562 480.625 93.98828125 C481.40875 93.43527344 482.1925 92.88226563 483 92.3125 C487.60693794 89.01456788 492.15963519 85.65505492 496.6875 82.25 C497.3683667 81.73848389 498.0492334 81.22696777 498.75073242 80.69995117 C501.49256003 78.63932696 504.23318312 76.57710464 506.97363281 74.51464844 C514.68028521 68.71623609 522.41169005 62.95541338 530.1875 57.25 C537.91556009 51.57671326 545.55002712 45.78861039 553.1628418 39.96191406 C559.65628773 35.00073709 566.21352003 30.13465839 572.80957031 25.31103516 C579.92096524 20.0959129 586.92074431 14.73827648 593.88476562 9.328125 C595.12516602 8.37292969 595.12516602 8.37292969 596.390625 7.3984375 C597.4739209 6.55804932 597.4739209 6.55804932 598.57910156 5.70068359 C601.58253421 3.59076913 604.81313998 1.82106287 608 0 C608 127.38 608 254.76 608 386 C407.36 386 206.72 386 0 386 C0 258.62 0 131.24 0 0 Z " fill="#33A752" transform="translate(0,118)"/>
<path d="M0 0 C5.18079156 3.45386104 10.03561063 6.69283495 14.875 10.5 C20.18149216 14.63772451 25.57109004 18.64952536 31 22.625 C37.89098023 27.67644477 44.71550204 32.80647933 51.5 38 C58.1194343 43.06656261 64.77503047 48.07435342 71.5 53 C79.12740017 58.5866242 86.65644565 64.29276338 94.1640625 70.0390625 C99.89902727 74.42064326 105.67759563 78.73542958 111.5 83 C119.11475076 88.57735926 126.6315769 94.27368118 134.12670898 100.01049805 C142.38638355 106.32092329 150.74453226 112.49314437 159.13500977 118.62817383 C161.0994117 120.07312402 163.05123988 121.53404203 165 123 C168.19654549 121.51903168 170.91483274 119.71175354 173.75 117.625 C174.72453125 116.90828125 175.6990625 116.1915625 176.703125 115.453125 C180.99648605 112.26570871 185.27067673 109.052653 189.54321289 105.83740234 C194.7310013 101.93767061 199.9541569 98.08829078 205.1875 94.25 C212.91568225 88.57688336 220.5500309 82.78860751 228.1628418 76.96191406 C234.66539815 71.99377647 241.23429756 67.12437737 247.8359375 62.2890625 C253.77671433 57.92722968 259.6475326 53.47945452 265.5 49 C272.88268346 43.34932439 280.32359573 37.78976064 287.82495117 32.29785156 C293.87779877 27.85518631 299.85236267 23.31606587 305.8125 18.75 C311.88004922 14.10513272 317.96753355 9.50191969 324.1875 5.0625 C324.75766846 4.65547852 325.32783691 4.24845703 325.9152832 3.82910156 C327.90143582 2.42507042 329.82112085 1.08943957 332 0 C332 77.22 332 154.44 332 234 C222.44 234 112.88 234 0 234 C0 156.78 0 79.56 0 0 Z " fill="#FEFEFE" transform="translate(138,221)"/>
<path d="M0 0 C7.86504838 4.49431336 7.86504838 4.49431336 10.953125 6.9609375 C11.64446533 7.50733887 12.33580566 8.05374023 13.0480957 8.61669922 C13.77472412 9.19693848 14.50135254 9.77717773 15.25 10.375 C21.52509045 15.32223128 27.86044537 20.16086799 34.3125 24.875 C41.10180563 29.84029218 47.82148555 34.88665692 54.5 40 C61.11938274 45.0666281 67.77503207 50.07435459 74.5 55 C82.1214867 60.58229293 89.64505411 66.28354788 97.14648438 72.02587891 C103.8274298 77.1306858 110.57799414 82.13332462 117.35888672 87.10424805 C135.20966832 100.20966832 135.20966832 100.20966832 138 103 C138.09800708 106.00877287 138.12991464 108.99461693 138.12025452 112.00379944 C138.12153854 113.43493073 138.12153854 113.43493073 138.12284851 114.89497375 C138.12451434 118.12799907 138.1189629 121.3609735 138.11352539 124.59399414 C138.11321931 126.93699613 138.11335211 129.2799982 138.11389065 131.62300014 C138.11411725 137.921432 138.10830373 144.21984501 138.10128021 150.5182724 C138.09560301 156.4193681 138.09531806 162.32045913 138.09460449 168.22155762 C138.08934836 185.50187426 138.07538733 202.78218736 138.0625 220.0625 C138.041875 258.651875 138.02125 297.24125 138 337 C247.56 337 357.12 337 470 337 C470 337.33 470 337.66 470 338 C314.9 338 159.8 338 0 338 C0 226.46 0 114.92 0 0 Z " fill="#4285F3" transform="translate(0,118)"/>
<path d="M0 0 C155.1 0 310.2 0 470 0 C470 0.33 470 0.66 470 1 C468.1128125 1.37125 468.1128125 1.37125 466.1875 1.75 C451.08198364 5.17769933 440.15042173 12.96355157 428.17089844 22.39648438 C422.75046642 26.66225493 417.25661261 30.80557649 411.6875 34.875 C404.89821691 39.84032792 398.17858561 44.88674625 391.5 50 C384.09227655 55.66860746 376.63056252 61.25360073 369.10913086 66.77026367 C358.92297127 74.24565058 348.83515819 81.85264547 338.7421875 89.453125 C333.60595065 93.31603294 328.44655578 97.1449331 323.26611328 100.94824219 C314.72177732 107.22259039 306.25798575 113.58915052 297.8515625 120.046875 C293.61351379 123.30179618 289.34305523 126.51215302 285.0625 129.7109375 C282.83053672 131.37921617 280.60142224 133.05092358 278.375 134.7265625 C270.19975422 140.87599266 261.9897206 146.97506972 253.73413086 153.01635742 C252.98784424 153.56396729 252.24155762 154.11157715 251.47265625 154.67578125 C250.73805176 155.21154785 250.00344727 155.74731445 249.24658203 156.29931641 C247.66816819 157.49419044 246.124502 158.73569007 244.60888672 160.00927734 C243.82916504 160.65977051 243.04944336 161.31026367 242.24609375 161.98046875 C241.20279907 162.88188599 241.20279907 162.88188599 240.13842773 163.80151367 C238 165 238 165 235.52148438 164.89160156 C232.67287722 163.88432878 230.78373539 162.62120189 228.41015625 160.75390625 C227.55075439 160.08665527 226.69135254 159.4194043 225.8059082 158.73193359 C224.9005835 158.01602051 223.99525879 157.30010742 223.0625 156.5625 C221.1627457 155.08558216 219.26170366 153.61031923 217.359375 152.13671875 C216.43705078 151.4204834 215.51472656 150.70424805 214.56445312 149.96630859 C211.37049837 147.51732615 208.11259019 145.17779116 204.8125 142.875 C198.60205016 138.5198003 192.64729072 133.86358806 186.68212891 129.18017578 C181.54229027 125.15936285 176.31691169 121.30408814 170.98095703 117.54907227 C165.9191915 113.97671028 161.02014996 110.21387514 156.125 106.41796875 C148.85339074 100.79156109 141.45828511 95.33291165 134.04931641 89.88964844 C126.77890413 84.54782971 119.5668128 79.15385483 112.4375 73.625 C108.17648216 70.34729397 103.83445919 67.17950925 99.5 64 C94.121822 60.05487884 88.7708366 56.08758757 83.5 52 C77.60260459 47.42802932 71.5997253 43.01053909 65.57910156 38.60253906 C60.31642359 34.73824765 55.11461885 30.80355823 49.94165039 26.82006836 C27.38464259 8.68398775 27.38464259 8.68398775 0 1 C0 0.67 0 0.34 0 0 Z " fill="#FEFEFE" transform="translate(68,0)"/>
<path d="M0 0 C200.64 0 401.28 0 608 0 C608 15.84 608 31.68 608 48 C407.36 48 206.72 48 0 48 C0 32.16 0 16.32 0 0 Z " fill="#010101" transform="translate(0,456)"/>
<path d="M0 0 C8.65883215 -0.04659831 17.3176203 -0.08200759 25.97655106 -0.10362434 C29.99841023 -0.11400585 34.02018282 -0.12806042 38.04199219 -0.15087891 C41.93236883 -0.17281039 45.82266286 -0.18461084 49.71309662 -0.18975449 C51.18804981 -0.19341418 52.66299912 -0.20055912 54.13791656 -0.21146011 C78.18006771 -0.38188316 93.48812849 7.15424085 112.25 21.75 C113.94149388 23.05886266 115.63423511 24.36611466 117.328125 25.671875 C118.15727386 26.33083613 118.98642271 26.98979727 119.84069729 27.66872692 C122.1496655 29.37253182 124.30637992 30.79060813 126.77527714 32.20411396 C137.82793759 38.82223387 137.82793759 38.82223387 139.36146355 44.87341881 C140.0300128 49.50301501 139.85963868 54.11116483 139.70288086 58.7722168 C139.69864286 60.5472121 139.70103828 62.32223364 139.70951843 64.09721375 C139.71380135 68.88800509 139.62599919 73.6730974 139.52090907 78.46256995 C139.42676432 83.47774363 139.41829955 88.49306647 139.40052795 93.50898743 C139.35401233 102.99426991 139.23107675 112.47694109 139.08028561 121.96107656 C138.91228228 132.76365789 138.83006711 143.56636786 138.75485408 154.36993158 C138.59830889 176.5814087 138.33468897 198.79053949 138 221 C136.58527081 220.0675051 135.1719806 219.13282691 133.75927734 218.19726562 C132.9720932 217.67700806 132.18490906 217.15675049 131.37387085 216.62072754 C127.65641247 214.08268417 124.14899178 211.29727596 120.625 208.5 C114.38897271 203.5990077 108.09009971 198.80624065 101.6875 194.125 C94.89837097 189.15946098 88.17852028 184.11334754 81.5 179 C74.88061726 173.9333719 68.22496793 168.92564541 61.5 164 C54.77502841 159.07435191 48.11950407 154.06647358 41.5 149 C33.97144331 143.23837075 26.39125561 137.55577479 18.7421875 131.95507812 C17.32782067 130.91933037 15.92916058 129.86171972 14.54875183 128.78112793 C12.01883139 126.89487541 12.01883139 126.89487541 8.9679718 125.63964844 C5.10169574 123.59493097 2.26690307 121.80427526 0 118 C-2.29493293 109.43210795 -1.39064455 100.08486774 -1.171875 91.30859375 C-1.14947811 88.67590712 -1.13240384 86.04317028 -1.12042236 83.41041565 C-1.08325045 77.20460878 -0.9849643 71.00136484 -0.86422849 64.79668242 C-0.72969301 57.72804816 -0.66402163 50.65928575 -0.60388327 43.58968818 C-0.47874163 29.05847513 -0.26792919 14.52927343 0 0 Z " fill="#C4211F" transform="translate(0,0)"/>
<path d="M0 0 C0.68377213 -0.00014603 1.36754425 -0.00029205 2.07203674 -0.0004425 C4.30660298 0.00024784 6.54108329 0.00799863 8.77563477 0.01586914 C10.33504694 0.01773645 11.89445971 0.01915887 13.45387268 0.02015686 C17.53910977 0.02395743 21.62431077 0.03376648 25.70953369 0.04486084 C29.88585929 0.05512808 34.06219078 0.05966582 38.23852539 0.06469727 C46.41888041 0.07539116 54.59920621 0.09243774 62.77954102 0.11352539 C63.27236216 15.22052172 63.64149001 30.32714714 63.86759663 45.44039917 C63.97543331 52.46016684 64.12209242 59.47491421 64.36376953 66.49145508 C64.59727739 73.27411527 64.71777131 80.0515839 64.77196312 86.8380127 C64.81053098 89.41574807 64.8858635 91.99322386 64.99987221 94.56872559 C65.83139165 114.14629869 65.83139165 114.14629869 60.7712059 120.72424316 C55.86641206 125.47745703 50.36525786 129.06845672 44.4808712 132.49041748 C40.19237161 135.06718416 36.2618535 138.09405378 32.27954102 141.11352539 C30.71874904 142.26168422 29.15644004 143.40778614 27.59204102 144.55102539 C22.44217808 148.34566124 17.35926063 152.22574731 12.27954102 156.11352539 C2.53409592 163.5688714 -7.32141436 170.86395512 -17.22045898 178.11352539 C-27.14362081 185.38418081 -37.02589782 192.69364805 -46.77612305 200.19506836 C-52.33526293 204.46178009 -57.9530021 208.64522951 -63.59545898 212.80102539 C-64.81845703 213.70208008 -64.81845703 213.70208008 -66.06616211 214.62133789 C-69.08812073 216.84102929 -72.09997154 219.03320043 -75.22045898 221.11352539 C-75.7122156 197.92187124 -76.08190788 174.73108272 -76.3085146 151.53526306 C-76.41655815 140.76334815 -76.56368436 129.99468195 -76.8046875 119.22485352 C-77.01478711 109.83150394 -77.14965756 100.4405072 -77.19631737 91.04487324 C-77.22357726 86.07377396 -77.28702673 81.10940139 -77.44079018 76.14047241 C-78.410785 43.5370455 -78.410785 43.5370455 -70.7593689 35.29394531 C-66.50219364 31.66982571 -61.97667638 29.01429942 -56.96822166 26.56454468 C-52.30333515 24.10114405 -48.29657859 20.79608996 -44.15795898 17.55102539 C-30.19175879 7.23022427 -17.83397402 -0.0322495 0 0 Z " fill="#F9BD03" transform="translate(545.220458984375,-0.113525390625)"/>
<path d="M0 0 C18.48 0 36.96 0 56 0 C56 19.14 56 38.28 56 58 C55.67 58 55.34 58 55 58 C54.85304688 56.91203125 54.70609375 55.8240625 54.5546875 54.703125 C52.12445269 38.22568154 45.64663775 24.93761714 32.765625 13.984375 C22.78430324 6.82263566 12.11530455 2.81729568 0 1 C0 0.67 0 0.34 0 0 Z " fill="#FEFDF9" transform="translate(552,0)"/>
<path d="M0 0 C19.14 0 38.28 0 58 0 C58 0.33 58 0.66 58 1 C56.51113281 1.20302734 56.51113281 1.20302734 54.9921875 1.41015625 C36.46085791 4.22969196 22.0293359 12.84724235 10.6328125 27.79296875 C5.59173657 35.13540543 2.51349393 44.26450788 1 53 C0.67 53 0.34 53 0 53 C0 35.51 0 18.02 0 0 Z " fill="#FDFBFB" transform="translate(0,0)"/>
<path d="M0 0 C0.33 0 0.66 0 1 0 C1 12.21 1 24.42 1 37 C-9.56 37 -20.12 37 -31 37 C-28.12594215 35.08396144 -25.30114921 33.67186862 -22.1875 32.1875 C-11.5340934 26.85438671 -4.94626608 19.42340182 -1 8 C-0.51762009 5.32326442 -0.23815265 2.71494023 0 0 Z " fill="#F9FCFA" transform="translate(607,418)"/>
<path d="M0 0 C0.33 0 0.66 0 1 0 C1.1959375 0.81082031 1.391875 1.62164062 1.59375 2.45703125 C4.7618976 14.18737087 10.06740707 22.94446234 20.390625 29.62890625 C24.42542994 31.74899088 28.56422161 33.00902823 33 34 C33 34.33 33 34.66 33 35 C22.11 35 11.22 35 0 35 C0 23.45 0 11.9 0 0 Z " fill="#FBFCFD" transform="translate(0,420)"/>
<path d="M0 0 C0.66 0 1.32 0 2 0 C2 0.66 2 1.32 2 2 C2.99 2 3.98 2 5 2 C5 2.99 5 3.98 5 5 C4.01 5 3.02 5 2 5 C2 7.31 2 9.62 2 12 C2.99 12 3.98 12 5 12 C5 12.66 5 13.32 5 14 C2.625 14.1875 2.625 14.1875 0 14 C-0.66 13.01 -1.32 12.02 -2 11 C-2.37125 11.495 -2.7425 11.99 -3.125 12.5 C-5 14 -5 14 -8 14.375 C-11 14 -11 14 -12.875 12.5 C-13.24625 12.005 -13.6175 11.51 -14 11 C-14.391875 11.495 -14.78375 11.99 -15.1875 12.5 C-17 14 -17 14 -19.5 14.375 C-22 14 -22 14 -23.8125 12.875 C-25.57002414 10.09996189 -25.46822746 8.21070255 -25 5 C-23.3125 3.0625 -23.3125 3.0625 -21 2 C-17.49389321 2.2565444 -15.9721099 3.0185934 -13 5 C-12.62875 4.484375 -12.2575 3.96875 -11.875 3.4375 C-10 2 -10 2 -7.0625 2.375 C-5.5465625 2.684375 -5.5465625 2.684375 -4 3 C-1.72349255 2.6422386 -1.72349255 2.6422386 0 2 C0 1.34 0 0.68 0 0 Z " fill="#A2A2A2" transform="translate(54,473)"/>
<path d="M0 0 C3.6875 0.3125 3.6875 0.3125 7 1 C7.33 1.99 7.66 2.98 8 4 C8.99 4 9.98 4 11 4 C11 3.34 11 2.68 11 2 C11.99 2 12.98 2 14 2 C14 2.66 14 3.32 14 4 C14.66 4 15.32 4 16 4 C16 4.99 16 5.98 16 7 C15.34 7 14.68 7 14 7 C14 9.31 14 11.62 14 14 C14.66 14 15.32 14 16 14 C16 14.66 16 15.32 16 16 C13.525 15.505 13.525 15.505 11 15 C11 12.36 11 9.72 11 7 C10.34 7 9.68 7 9 7 C9 6.34 9 5.68 9 5 C7.68 4.67 6.36 4.34 5 4 C5 3.34 5 2.68 5 2 C3.01508358 2.26676204 3.01508358 2.26676204 1 3 C0.67 3.99 0.34 4.98 0 6 C2.64 6.66 5.28 7.32 8 8 C8.6875 10.3125 8.6875 10.3125 9 13 C7.9375 14.8125 7.9375 14.8125 6 16 C2.71501168 16.41062354 0.84154581 16.6171336 -1.875 14.625 C-3 13 -3 13 -3 11 C-2.01 11 -1.02 11 0 11 C0.33 11.66 0.66 12.32 1 13 C2.32 13 3.64 13 5 13 C5.33 12.01 5.66 11.02 6 10 C5.071875 9.87625 4.14375 9.7525 3.1875 9.625 C0 9 0 9 -3 7 C-3.99 7.33 -4.98 7.66 -6 8 C-6.33 10.64 -6.66 13.28 -7 16 C-7.99 16 -8.98 16 -10 16 C-10 12.04 -10 8.08 -10 4 C-8.906875 3.896875 -7.81375 3.79375 -6.6875 3.6875 C-3.06170714 3.3918256 -3.06170714 3.3918256 -1.5 1.375 C-1.005 0.92125 -0.51 0.4675 0 0 Z " fill="#C6C6C6" transform="translate(82,471)"/>
<path d="M0 0 C4.62 0 9.24 0 14 0 C16.25 6.75 16.25 6.75 15 10 C12.6875 10.6875 12.6875 10.6875 10 11 C8.1875 9.5625 8.1875 9.5625 7 8 C6.67 8.66 6.34 9.32 6 10 C4.02 10 2.04 10 0 10 C0.33 9.01 0.66 8.02 1 7 C1.99 7.33 2.98 7.66 4 8 C4.33 7.01 4.66 6.02 5 5 C3.35 5 1.7 5 0 5 C0 3.35 0 1.7 0 0 Z " fill="#595959" transform="translate(575,476)"/>
<path d="M0 0 C0.66 0 1.32 0 2 0 C2 0.66 2 1.32 2 2 C2.99 2 3.98 2 5 2 C5 2.99 5 3.98 5 5 C4.01 5 3.02 5 2 5 C2 7.31 2 9.62 2 12 C2.99 12 3.98 12 5 12 C5 12.66 5 13.32 5 14 C2.6875 14.1875 2.6875 14.1875 0 14 C-0.474375 13.484375 -0.94875 12.96875 -1.4375 12.4375 C-1.953125 11.963125 -2.46875 11.48875 -3 11 C-6.05636102 11.32882152 -6.05636102 11.32882152 -9 12 C-9.66 11.67 -10.32 11.34 -11 11 C-11 9.35 -11 7.7 -11 6 C-8.6875 5.375 -8.6875 5.375 -6 5 C-5.01 5.66 -4.02 6.32 -3 7 C-3.33 6.01 -3.66 5.02 -4 4 C-3.67 3.34 -3.34 2.68 -3 2 C-2.01 2 -1.02 2 0 2 C0 1.34 0 0.68 0 0 Z " fill="#191919" transform="translate(54,473)"/>
<path d="M0 0 C2.6985972 0.94450902 3.8982611 1.51454268 5.5 3.875 C5.92822025 6.72980169 5.90659584 8.21992892 4.375 10.6875 C1.59996189 12.44502414 -0.28929745 12.34322746 -3.5 11.875 C-5.4375 10.1875 -5.4375 10.1875 -6.5 7.875 C-6.36008938 5.00683219 -5.83903136 3.38354704 -4.25 1 C-2.5 -0.125 -2.5 -0.125 0 0 Z " fill="#DDDDDD" transform="translate(65.5,475.125)"/>
<path d="M0 0 C2 2 2 2 2.3125 4.9375 C2 8 2 8 0.8125 9.875 C-1.65507108 11.40659584 -3.14519831 11.42822025 -6 11 C-7.8125 9.875 -7.8125 9.875 -9 8 C-9.4375 5 -9.4375 5 -9 2 C-6.12524616 -1.3006433 -4.03854228 -1.38160657 0 0 Z " fill="#D3D3D3" transform="translate(108,476)"/>
<path d="M0 0 C0.91007813 0.00902344 1.82015625 0.01804687 2.7578125 0.02734375 C3.45648437 0.03894531 4.15515625 0.05054688 4.875 0.0625 C4.875 1.3825 4.875 2.7025 4.875 4.0625 C5.2153125 5.0834375 5.2153125 5.0834375 5.5625 6.125 C5.875 8.0625 5.875 8.0625 4.6875 9.875 C2.875 11.0625 2.875 11.0625 0.9375 10.6875 C0.256875 10.48125 -0.42375 10.275 -1.125 10.0625 C-3.31203385 10.44157282 -3.31203385 10.44157282 -5.125 11.0625 C-5.125 8.4225 -5.125 5.7825 -5.125 3.0625 C-5.785 3.0625 -6.445 3.0625 -7.125 3.0625 C-7.125 2.4025 -7.125 1.7425 -7.125 1.0625 C-4.60024538 -0.19987731 -2.81299534 -0.03606404 0 0 Z " fill="#242424" transform="translate(550.125,475.9375)"/>
<path d="M0 0 C1.9375 0.375 1.9375 0.375 4 1 C6.88067404 1.1450037 6.88067404 1.1450037 9.0625 0.375 C9.701875 0.25125 10.34125 0.1275 11 0 C11.66 0.66 12.32 1.32 13 2 C12.625 5.125 12.625 5.125 12 8 C10.1875 8.625 10.1875 8.625 8 9 C7.01 8.34 6.02 7.68 5 7 C4.67 7.33 4.34 7.66 4 8 C1.5 8.125 1.5 8.125 -1 8 C-2 7 -2 7 -2.1875 4.5625 C-2 2 -2 2 0 0 Z " fill="#BEBEBE" transform="translate(494,478)"/>
<path d="M0 0 C0.99 0 1.98 0 3 0 C3.33 2.31 3.66 4.62 4 7 C4.99 6.01 5.98 5.02 7 4 C7.99 4.33 8.98 4.66 10 5 C9.484375 5.4125 8.96875 5.825 8.4375 6.25 C6.7577168 7.87499557 6.7577168 7.87499557 7.1875 9.9375 C8.0126237 12.03204478 8.93709487 14.01591042 10 16 C8.125 15.6875 8.125 15.6875 6 15 C5.34 14.01 4.68 13.02 4 12 C3.67 13.32 3.34 14.64 3 16 C2.01 16 1.02 16 0 16 C0 10.72 0 5.44 0 0 Z " fill="#CCCCCC" transform="translate(123,471)"/>
<path d="M0 0 C0.99 0 1.98 0 3 0 C4.32 3.63 5.64 7.26 7 11 C7.598125 9.370625 8.19625 7.74125 8.8125 6.0625 C9.83203125 3.28515625 9.83203125 3.28515625 11 1 C11.99 0.67 12.98 0.34 14 0 C13.54548816 1.73017508 13.08621143 3.45909877 12.625 5.1875 C12.36976562 6.15042969 12.11453125 7.11335938 11.8515625 8.10546875 C11.05233704 10.82210207 10.0968638 13.39137175 9 16 C7.171875 15.90234375 7.171875 15.90234375 5 15 C3.515625 12.12890625 3.515625 12.12890625 2.25 8.5625 C1.82203125 7.38816406 1.3940625 6.21382813 0.953125 5.00390625 C0 2 0 2 0 0 Z " fill="#DFDFDF" transform="translate(16,471)"/>
<path d="M0 0 C4.55555556 0.55555556 4.55555556 0.55555556 6 2 C6.1875 4.9375 6.1875 4.9375 6 8 C4 10 4 10 1.4375 10.1875 C-1 10 -1 10 -2 9 C-2.1875 5.5625 -2.1875 5.5625 -2 2 C-1.34 1.34 -0.68 0.68 0 0 Z " fill="#CBCBCB" transform="translate(559,476)"/>
<path d="M0 0 C4.70588235 0.70588235 4.70588235 0.70588235 6 2 C6.125 5.5 6.125 5.5 6 9 C5 10 5 10 2.5625 10.25 C1.716875 10.1675 0.87125 10.085 0 10 C-2 7 -2 7 -1.6875 3.875 C-1 1 -1 1 0 0 Z " fill="#CECECE" transform="translate(536,476)"/>
<path d="M0 0 C2.4375 0.875 2.4375 0.875 3.75 2.9375 C4.0903125 3.8965625 4.0903125 3.8965625 4.4375 4.875 C2.1275 4.545 -0.1825 4.215 -2.5625 3.875 C-2.5625 5.525 -2.5625 7.175 -2.5625 8.875 C0.9025 8.38 0.9025 8.38 4.4375 7.875 C3.7775 9.195 3.1175 10.515 2.4375 11.875 C-2.91215035 12.23164336 -2.91215035 12.23164336 -5.5 10.8125 C-7.22915678 7.65933176 -6.4215699 5.24991745 -5.5625 1.875 C-2.5625 -0.125 -2.5625 -0.125 0 0 Z " fill="#D7D7D7" transform="translate(117.5625,475.125)"/>
<path d="M0 0 C1.65420222 0.53739056 3.29833295 1.10586008 4.9375 1.6875 C5.85402344 2.00074219 6.77054687 2.31398438 7.71484375 2.63671875 C10 4 10 4 10.8828125 6.53125 C11 9 11 9 9.9375 10.8125 C7.14776246 12.52233914 5.20890425 12.40111303 2 12 C0.125 10.625 0.125 10.625 -1 9 C-1 8.34 -1 7.68 -1 7 C-0.01 7 0.98 7 2 7 C2.33 7.66 2.66 8.32 3 9 C4.32 9 5.64 9 7 9 C7.33 8.01 7.66 7.02 8 6 C7.05125 5.87625 6.1025 5.7525 5.125 5.625 C2 5 2 5 0 3 C0 2.01 0 1.02 0 0 Z " fill="#E2E2E2" transform="translate(80,475)"/>
<path d="M0 0 C0.33 1.32 0.66 2.64 1 4 C-1.31 3.67 -3.62 3.34 -6 3 C-6.33 4.65 -6.66 6.3 -7 8 C-3.95613276 8.08226668 -1.92824652 7.97608217 1 7 C0.34 8.32 -0.32 9.64 -1 11 C-3.875 11.1875 -3.875 11.1875 -7 11 C-9.31282587 7.53076119 -9.42478586 6.07794425 -9 2 C-6.6888271 -1.98035333 -4.06268971 -0.99310193 0 0 Z " fill="#E4E4E4" transform="translate(50,476)"/>
<path d="M0 0 C1.45792884 -0.05399736 2.91642712 -0.09279177 4.375 -0.125 C5.18710937 -0.14820313 5.99921875 -0.17140625 6.8359375 -0.1953125 C9 0 9 0 11 2 C11.125 5.625 11.125 5.625 11 9 C10.34 9 9.68 9 9 9 C9 6.69 9 4.38 9 2 C8.01 2.495 8.01 2.495 7 3 C6.34227572 6.02934491 6.34227572 6.02934491 6 9 C5.34 9 4.68 9 4 9 C4 6.69 4 4.38 4 2 C3.34 2 2.68 2 2 2 C2 3.98 2 5.96 2 8 C1.34 8 0.68 8 0 8 C0 5.36 0 2.72 0 0 Z " fill="#BCBCBC" transform="translate(508,478)"/>
<path d="M0 0 C2.125 0.375 2.125 0.375 4 1 C4.625 3.3125 4.625 3.3125 5 6 C4.01 7.485 4.01 7.485 3 9 C-0.875 8.125 -0.875 8.125 -2 7 C-2.1875 4.5625 -2.1875 4.5625 -2 2 C-1.34 1.34 -0.68 0.68 0 0 Z " fill="#898989" transform="translate(502,478)"/>
<path d="M0 0 C3.53571429 0.53571429 3.53571429 0.53571429 5 2 C5.125 4.5 5.125 4.5 5 7 C4 8 4 8 1.5 8.125 C-1 8 -1 8 -2 7 C-2.1875 4.5625 -2.1875 4.5625 -2 2 C-1.34 1.34 -0.68 0.68 0 0 Z " fill="#D3D3D3" transform="translate(441,478)"/>
<path d="M0 0 C3.53571429 0.53571429 3.53571429 0.53571429 5 2 C5.125 4.5 5.125 4.5 5 7 C4 8 4 8 1.5 8.125 C-1 8 -1 8 -2 7 C-2.1875 4.5625 -2.1875 4.5625 -2 2 C-1.34 1.34 -0.68 0.68 0 0 Z " fill="#909090" transform="translate(467,478)"/>
<path d="M0 0 C0.66 0 1.32 0 2 0 C2.33 1.32 2.66 2.64 3 4 C3.99 3.34 4.98 2.68 6 2 C5.814375 2.78375 5.62875 3.5675 5.4375 4.375 C4.74037734 6.97089775 4.74037734 6.97089775 6 9 C7.32 8.67 8.64 8.34 10 8 C10 8.99 10 9.98 10 11 C7.625 11.125 7.625 11.125 5 11 C4.34 10.34 3.68 9.68 3 9 C2.67 9.66 2.34 10.32 2 11 C1.34 11 0.68 11 0 11 C0 7.37 0 3.74 0 0 Z " fill="#B6B6B6" transform="translate(481,476)"/>
<path d="M0 0 C1.98 0 3.96 0 6 0 C6 1.32 6 2.64 6 4 C6.226875 4.680625 6.45375 5.36125 6.6875 6.0625 C7 8 7 8 5.8125 9.8125 C4 11 4 11 1.875 10.875 C0.946875 10.441875 0.946875 10.441875 0 10 C-0.33 9.01 -0.66 8.02 -1 7 C1.475 7.495 1.475 7.495 4 8 C4.33 7.01 4.66 6.02 5 5 C3.35 5 1.7 5 0 5 C0 3.35 0 1.7 0 0 Z " fill="#C1C1C1" transform="translate(549,476)"/>
<path d="M0 0 C0.66 0 1.32 0 2 0 C2 0.66 2 1.32 2 2 C2.99 2 3.98 2 5 2 C5 2.99 5 3.98 5 5 C4.01 5 3.02 5 2 5 C2 7.31 2 9.62 2 12 C2.99 12 3.98 12 5 12 C5 12.66 5 13.32 5 14 C3.35 14 1.7 14 0 14 C0 10.7 0 7.4 0 4 C-0.66 4 -1.32 4 -2 4 C-2 3.34 -2 2.68 -2 2 C-1.34 2 -0.68 2 0 2 C0 1.34 0 0.68 0 0 Z " fill="#DBDBDB" transform="translate(54,473)"/>
<path d="M0 0 C2.69082872 0.17635452 5.32851446 0.61835921 8 1 C8 2.32 8 3.64 8 5 C3.56923077 7.09230769 3.56923077 7.09230769 0.6875 6.625 C0.130625 6.41875 -0.42625 6.2125 -1 6 C-1.042721 4.33388095 -1.04063832 2.66617115 -1 1 C-0.67 0.67 -0.34 0.34 0 0 Z " fill="#090909" transform="translate(115,478)"/>
<path d="M0 0 C1.2065625 0.0309375 1.2065625 0.0309375 2.4375 0.0625 C2.7675 1.0525 3.0975 2.0425 3.4375 3.0625 C1.7875 2.7325 0.1375 2.4025 -1.5625 2.0625 C-1.5625 2.7225 -1.5625 3.3825 -1.5625 4.0625 C0.9125 5.0525 0.9125 5.0525 3.4375 6.0625 C3.4375 7.3825 3.4375 8.7025 3.4375 10.0625 C1.7875 10.3925 0.1375 10.7225 -1.5625 11.0625 C-2.2225 9.7425 -2.8825 8.4225 -3.5625 7.0625 C-1.0875 7.5575 -1.0875 7.5575 1.4375 8.0625 C0.798125 7.835625 0.15875 7.60875 -0.5 7.375 C-2.5625 6.0625 -2.5625 6.0625 -3.375 3.5 C-3.436875 2.695625 -3.49875 1.89125 -3.5625 1.0625 C-2.5625 0.0625 -2.5625 0.0625 0 0 Z " fill="#CCCCCC" transform="translate(455.5625,475.9375)"/>
<path d="M0 0 C2.31 0 4.62 0 7 0 C7 0.33 7 0.66 7 1 C5.35 1 3.7 1 2 1 C2 1.66 2 2.32 2 3 C3.65 3.33 5.3 3.66 7 4 C7.042721 5.66611905 7.04063832 7.33382885 7 9 C6 10 6 10 3.4375 10.0625 C2.633125 10.041875 1.82875 10.02125 1 10 C1 9.01 1 8.02 1 7 C2.32 7.66 3.64 8.32 5 9 C5 7.68 5 6.36 5 5 C3.35 5.33 1.7 5.66 0 6 C0 4.02 0 2.04 0 0 Z " fill="#CDCDCD" transform="translate(526,476)"/>
<path d="M0 0 C2.31 0 4.62 0 7 0 C7 0.33 7 0.66 7 1 C5.35 1 3.7 1 2 1 C2 1.66 2 2.32 2 3 C3.65 3.33 5.3 3.66 7 4 C7.042721 5.66611905 7.04063832 7.33382885 7 9 C6 10 6 10 3.4375 10.0625 C2.633125 10.041875 1.82875 10.02125 1 10 C1 9.01 1 8.02 1 7 C2.32 7.66 3.64 8.32 5 9 C5 7.68 5 6.36 5 5 C3.35 5.33 1.7 5.66 0 6 C0 4.02 0 2.04 0 0 Z " fill="#CCCCCC" transform="translate(566,476)"/>
<path d="M0 0 C2.125 0.375 2.125 0.375 4 1 C4.33 2.32 4.66 3.64 5 5 C4.01 5.495 4.01 5.495 3 6 C3.66 6.33 4.32 6.66 5 7 C4 8 4 8 1.5 8.125 C-1 8 -1 8 -2 7 C-2.1875 4.5625 -2.1875 4.5625 -2 2 C-1.34 1.34 -0.68 0.68 0 0 Z " fill="#D2D2D2" transform="translate(420,478)"/>
<path d="M0 0 C1.32 0.33 2.64 0.66 4 1 C4.33 3.64 4.66 6.28 5 9 C2 11 2 11 -0.1875 10.625 C-0.785625 10.41875 -1.38375 10.2125 -2 10 C-2.33 8.68 -2.66 7.36 -3 6 C-2.34 6.66 -1.68 7.32 -1 8 C-0.01 8 0.98 8 2 8 C2.33 7.34 2.66 6.68 3 6 C1.68 6 0.36 6 -1 6 C-1 5.34 -1 4.68 -1 4 C-0.01 4 0.98 4 2 4 C2 3.01 2 2.02 2 1 C1.34 0.67 0.68 0.34 0 0 Z " fill="#C9C9C9" transform="translate(586,476)"/>
<path d="M0 0 C1.98 0 3.96 0 6 0 C4.68 0.33 3.36 0.66 2 1 C2 1.66 2 2.32 2 3 C3.32 3.33 4.64 3.66 6 4 C7.125 7.75 7.125 7.75 6 10 C4.02 10 2.04 10 0 10 C0.33 9.01 0.66 8.02 1 7 C1.99 7.33 2.98 7.66 4 8 C4.33 7.01 4.66 6.02 5 5 C3.35 5 1.7 5 0 5 C0 3.35 0 1.7 0 0 Z " fill="#D7D7D7" transform="translate(575,476)"/>
<path d="M0 0 C1.67542976 0.28604898 3.34385343 0.61781233 5 1 C5 2.65 5 4.3 5 6 C3.34385343 6.38218767 1.67542976 6.71395102 0 7 C-1 6 -1 6 -1.125 3.5 C-1 1 -1 1 0 0 Z " fill="#090909" transform="translate(63,478)"/>
<path d="M0 0 C0.66 0 1.32 0 2 0 C2.33 5.28 2.66 10.56 3 16 C2.01 16 1.02 16 0 16 C0 10.72 0 5.44 0 0 Z " fill="#D5D5D5" transform="translate(123,471)"/>
<path d="M0 0 C0.66 0 1.32 0 2 0 C2.66 1.65 3.32 3.3 4 5 C6.2236068 3.0745356 6.2236068 3.0745356 7 0 C7.66 0 8.32 0 9 0 C8.34 2.97 7.68 5.94 7 9 C5.68 9.33 4.36 9.66 3 10 C2.01 6.7 1.02 3.4 0 0 Z " fill="#CFCFCF" transform="translate(409,476)"/>
<path d="M0 0 C1.65 0 3.3 0 5 0 C5.625 2.375 5.625 2.375 6 5 C5.34 5.66 4.68 6.32 4 7 C1.875 6.625 1.875 6.625 0 6 C0 4.02 0 2.04 0 0 Z " fill="#0D0D0D" transform="translate(102,478)"/>
<path d="M0 0 C0.78375 0.2475 1.5675 0.495 2.375 0.75 C2.705 1.41 3.035 2.07 3.375 2.75 C3.045 3.41 2.715 4.07 2.375 4.75 C0.065 4.75 -2.245 4.75 -4.625 4.75 C-4.955 3.76 -5.285 2.77 -5.625 1.75 C-2.625 -0.25 -2.625 -0.25 0 0 Z " fill="#979797" transform="translate(35.625,475.25)"/>
<path d="M0 0 C0.2475 0.639375 0.495 1.27875 0.75 1.9375 C1.82890009 4.11372785 1.82890009 4.11372785 3.875 5 C6.22649745 5.23110194 6.22649745 5.23110194 8.25 3.0625 C8.8275 2.381875 9.405 1.70125 10 1 C9.67 2.98 9.34 4.96 9 7 C5.625 7.625 5.625 7.625 2 8 C0 6 0 6 -0.125 2.875 C-0.08375 1.92625 -0.0425 0.9775 0 0 Z " fill="#E8E8E8" transform="translate(100,479)"/>
<path d="M0 0 C2.4375 0.875 2.4375 0.875 3.75 2.9375 C4.0903125 3.8965625 4.0903125 3.8965625 4.4375 4.875 C2.1275 4.545 -0.1825 4.215 -2.5625 3.875 C-3.2225 5.195 -3.8825 6.515 -4.5625 7.875 C-4.8925 5.895 -5.2225 3.915 -5.5625 1.875 C-2.5625 -0.125 -2.5625 -0.125 0 0 Z " fill="#CACACA" transform="translate(117.5625,475.125)"/>
<path d="M0 0 C0.598125 0.226875 1.19625 0.45375 1.8125 0.6875 C1.8125 1.3475 1.8125 2.0075 1.8125 2.6875 C1.19375 2.72875 0.575 2.77 -0.0625 2.8125 C-0.76375 3.10125 -1.465 3.39 -2.1875 3.6875 C-3.4920656 6.68365946 -3.4920656 6.68365946 -4.1875 9.6875 C-4.8475 9.0275 -5.5075 8.3675 -6.1875 7.6875 C-5.97093634 4.87217241 -5.49877943 3.13218489 -3.875 0.8125 C-2.1875 -0.3125 -2.1875 -0.3125 0 0 Z " fill="#C6C6C6" transform="translate(65.1875,475.3125)"/>
<path d="M0 0 C1.32 0 2.64 0 4 0 C4 0.66 4 1.32 4 2 C3.34 2 2.68 2 2 2 C2 4.31 2 6.62 2 9 C2.66 9 3.32 9 4 9 C4 9.66 4 10.32 4 11 C2.68 11 1.36 11 0 11 C0 7.37 0 3.74 0 0 Z " fill="#DADADA" transform="translate(94,476)"/>
<path d="M0 0 C-0.33 1.32 -0.66 2.64 -1 4 C-2.65 3.67 -4.3 3.34 -6 3 C-6 2.34 -6 1.68 -6 1 C-6.99 0.67 -7.98 0.34 -9 0 C-5.52176885 -1.15941038 -3.54104422 -0.70820884 0 0 Z " fill="#101010" transform="translate(88,481)"/>
<path d="M0 0 C2.44897847 3.67346771 2.31537716 5.66356399 2 10 C1.34 10.66 0.68 11.32 0 12 C0 11.34 0 10.68 0 10 C-0.66 10 -1.32 10 -2 10 C-2 7.69 -2 5.38 -2 3 C-1.34 3 -0.68 3 0 3 C0 2.01 0 1.02 0 0 Z " fill="#080808" transform="translate(98,475)"/>
<path d="M0 0 C0 3.63 0 7.26 0 11 C-0.66 11 -1.32 11 -2 11 C-2 8.36 -2 5.72 -2 3 C-2.66 3 -3.32 3 -4 3 C-4 2.34 -4 1.68 -4 1 C-2 0 -2 0 0 0 Z " fill="#B8B8B8" transform="translate(547,476)"/>
<path d="M0 0 C1.32 0 2.64 0 4 0 C4 1.98 4 3.96 4 6 C2.68 6 1.36 6 0 6 C0 4.02 0 2.04 0 0 Z " fill="#060606" transform="translate(559,478)"/>
<path d="M0 0 C0.99 0 1.98 0 3 0 C3 2.31 3 4.62 3 7 C1.68 6.67 0.36 6.34 -1 6 C-1.042721 4.33388095 -1.04063832 2.66617115 -1 1 C-0.67 0.67 -0.34 0.34 0 0 Z " fill="#101010" transform="translate(537,478)"/>
<path d="M0 0 C0.33 0.66 0.66 1.32 1 2 C2.65 2 4.3 2 6 2 C5.67 3.32 5.34 4.64 5 6 C1 6 1 6 -1 5 C-0.67 3.35 -0.34 1.7 0 0 Z " fill="#222222" transform="translate(574,479)"/>
<path d="M0 0 C4.95 1.98 4.95 1.98 10 4 C9.34 4.66 8.68 5.32 8 6 C2.54545455 5.54545455 2.54545455 5.54545455 0 3 C0 2.01 0 1.02 0 0 Z " fill="#D9D9D9" transform="translate(80,475)"/>
<path d="M0 0 C0.66 0 1.32 0 2 0 C3.04005702 3.38018531 3.08004482 6.4780279 3 10 C2.01 10 1.02 10 0 10 C-1.125 2.25 -1.125 2.25 0 0 Z " fill="#C3C3C3" transform="translate(435,476)"/>
<path d="M0 0 C2.00720923 0.28674418 4.0085944 0.61866701 6 1 C6.33 2.32 6.66 3.64 7 5 C4.36 4.67 1.72 4.34 -1 4 C-1 1 -1 1 0 0 Z " fill="#CACACA" transform="translate(44,475)"/>
<path d="M0 0 C0.99 0.33 1.98 0.66 3 1 C3 3.64 3 6.28 3 9 C2.01 9 1.02 9 0 9 C-0.87890625 2.84765625 -0.87890625 2.84765625 -1 1 C-0.67 0.67 -0.34 0.34 0 0 Z " fill="#CECECE" transform="translate(461,477)"/>
<path d="M0 0 C1.98 0 3.96 0 6 0 C6.33 1.98 6.66 3.96 7 6 C5 6 5 6 3.5 4.5625 C3.005 4.046875 2.51 3.53125 2 3 C1.34 2.67 0.68 2.34 0 2 C0 1.34 0 0.68 0 0 Z " fill="#191919" transform="translate(454,478)"/>
<path d="M0 0 C1.32 0 2.64 0 4 0 C3.34 2.97 2.68 5.94 2 9 C1.34 9 0.68 9 0 9 C0 6.03 0 3.06 0 0 Z " fill="#BCBCBC" transform="translate(447,478)"/>
<path d="M0 0 C0.99 0 1.98 0 3 0 C3 0.66 3 1.32 3 2 C3.66 2.33 4.32 2.66 5 3 C4.34 3 3.68 3 3 3 C3 3.66 3 4.32 3 5 C1.68 4.67 0.36 4.34 -1 4 C-0.67 2.68 -0.34 1.36 0 0 Z " fill="#191919" transform="translate(494,480)"/>
<path d="M0 0 C0.625 2.5625 0.625 2.5625 1 5 C-1.31 4.01 -3.62 3.02 -6 2 C-6 1.34 -6 0.68 -6 0 C-2.25 -1.125 -2.25 -1.125 0 0 Z " fill="#2D2D2D" transform="translate(583,477)"/>
<path d="M0 0 C0.33 0 0.66 0 1 0 C1 1.65 1 3.3 1 5 C1.99 5 2.98 5 4 5 C4 5.66 4 6.32 4 7 C2.35 7 0.7 7 -1 7 C-1.04254356 5.00045254 -1.04080783 2.99958364 -1 1 C-0.67 0.67 -0.34 0.34 0 0 Z " fill="#EAEAEA" transform="translate(55,480)"/>
<path d="M0 0 C1.98 0.495 1.98 0.495 4 1 C4 1.99 4 2.98 4 4 C2.35 4 0.7 4 -1 4 C-0.67 2.68 -0.34 1.36 0 0 Z " fill="#A2A2A2" transform="translate(420,478)"/>
<path d="M0 0 C0.99 0 1.98 0 3 0 C3.66 2.31 4.32 4.62 5 7 C4.01 7 3.02 7 2 7 C1.34 4.69 0.68 2.38 0 0 Z " fill="#D2D2D2" transform="translate(16,471)"/>
<path d="M0 0 C0.99 0 1.98 0 3 0 C3 1.65 3 3.3 3 5 C1.68 4.67 0.36 4.34 -1 4 C-0.67 2.68 -0.34 1.36 0 0 Z " fill="#202020" transform="translate(441,480)"/>
<path d="M0 0 C1.32 0.33 2.64 0.66 4 1 C3.67 2.32 3.34 3.64 3 5 C2.01 5 1.02 5 0 5 C0 3.35 0 1.7 0 0 Z " fill="#111111" transform="translate(428,480)"/>
<path d="M0 0 C0.66 0 1.32 0 2 0 C1.67 2.31 1.34 4.62 1 7 C0.01 7.33 -0.98 7.66 -2 8 C-2.125 5.125 -2.125 5.125 -2 2 C-1.34 1.34 -0.68 0.68 0 0 Z " fill="#C5C5C5" transform="translate(101,476)"/>
<path d="M0 0 C0 0.99 0 1.98 0 3 C-1.53125 4.38671875 -1.53125 4.38671875 -3.5 5.6875 C-4.47453125 6.34298828 -4.47453125 6.34298828 -5.46875 7.01171875 C-5.9740625 7.33785156 -6.479375 7.66398438 -7 8 C-7 7.01 -7 6.02 -7 5 C-5.46875 3.61328125 -5.46875 3.61328125 -3.5 2.3125 C-2.8503125 1.87550781 -2.200625 1.43851563 -1.53125 0.98828125 C-1.0259375 0.66214844 -0.520625 0.33601562 0 0 Z " fill="#47A94F" transform="translate(525,179)"/>
</svg>
