<?xml version="1.0" encoding="UTF-8"?>
<svg version="1.1" xmlns="http://www.w3.org/2000/svg" width="547" height="365">
<path d="M0 0 C180.51 0 361.02 0 547 0 C547 120.45 547 240.9 547 365 C366.49 365 185.98 365 0 365 C0 244.55 0 124.1 0 0 Z " fill="#FEFEFE" transform="translate(0,0)"/>
<path d="M0 0 C1.83350329 -0.00621339 3.66699848 -0.0154348 5.50047302 -0.0274353 C10.47388078 -0.05079103 15.44622326 -0.03021264 20.41956139 -0.00039196 C25.62578234 0.0247882 30.83194599 0.01420408 36.03820801 0.00872803 C44.78101864 0.00514365 53.52340793 0.02968948 62.26611328 0.07128906 C72.37169624 0.11906635 82.47661291 0.12432338 92.58227777 0.10633874 C102.30639947 0.08986039 112.0302829 0.10170634 121.75437927 0.12706757 C125.89144508 0.13746629 130.02834842 0.13826901 134.16542053 0.13141632 C139.03792832 0.12475639 143.90972876 0.14300433 148.78209114 0.18043137 C150.56948807 0.19023183 152.35695462 0.19156638 154.1443615 0.1837883 C156.58623731 0.17459553 159.02597875 0.19622913 161.46765137 0.22564697 C162.17368893 0.2158576 162.8797265 0.20606823 163.60715914 0.19598222 C169.17472637 0.31644328 171.46593777 2.07980091 175.24804688 5.87402344 C176.93282344 9.24357657 176.39985305 13.06121834 176.40194702 16.7678833 C176.40632928 17.70049225 176.41071153 18.63310119 176.41522658 19.59397101 C176.42864745 22.73843057 176.4348008 25.88286209 176.44091797 29.02734375 C176.44881632 31.27403389 176.4570851 33.52072276 176.46569824 35.76741028 C176.49194828 43.16231062 176.5072284 50.55721671 176.52148438 57.95214844 C176.52684274 60.49470778 176.53222025 63.03726709 176.53761673 65.57982635 C176.55924942 76.15357602 176.57813878 86.72732433 176.58923912 97.30109024 C176.59216886 100.04561619 176.59513052 102.79014211 176.59814453 105.53466797 C176.59889058 106.21681389 176.59963663 106.8989598 176.60040529 107.60177681 C176.61305898 118.65220195 176.64628167 129.70246619 176.68794636 140.75281611 C176.73036475 152.09598035 176.75352637 163.43903236 176.75915968 174.78228641 C176.76281859 181.15194283 176.77489747 187.52132657 176.80726242 193.89090729 C176.83727105 199.8827426 176.84368039 205.87413919 176.83187866 211.86603355 C176.83165733 214.06628489 176.84001152 216.26655616 176.8575325 218.46673775 C176.88014174 221.46909976 176.87196687 224.46985989 176.85604858 227.472229 C176.86993067 228.34441488 176.88381276 229.21660075 176.89811552 230.11521649 C176.84280974 234.34431379 176.54003511 237.04644716 173.83504677 240.39913559 C169.8939389 244.16944883 167.20258115 244.02428631 161.9866333 244.02792358 C161.22961711 244.03230584 160.47260091 244.03668809 159.69264483 244.04120314 C157.14242483 244.05461473 154.59223939 244.06077528 152.04199219 244.06689453 C150.21894168 244.07479365 148.39589274 244.08306248 146.57284546 244.0916748 C140.5739695 244.11791716 134.57508649 244.13320473 128.57617188 244.14746094 C126.51280462 244.15281972 124.44943741 244.15819723 122.38607025 244.16359329 C113.80421682 244.18522534 105.22236529 244.20396274 96.64049149 244.21521568 C84.33286656 244.2314589 72.02555716 244.26464208 59.7180512 244.32161653 C51.06915632 244.3602921 42.42034593 244.37984556 33.77136683 244.38513625 C28.6033474 244.388793 23.43566432 244.40084861 18.26773834 244.43323898 C13.40526124 244.46327755 8.54332474 244.46964647 3.68077469 244.45785522 C1.89655926 244.45763414 0.11231906 244.46596836 -1.67181015 244.48350906 C-4.10939366 244.50616872 -6.54501154 244.49792228 -8.98260498 244.48202515 C-9.68748008 244.49590723 -10.39235517 244.50978932 -11.11859012 244.52409208 C-16.69100002 244.43464628 -18.97025982 242.67051551 -22.75195312 238.87402344 C-23.96082603 236.45627763 -23.87254655 234.94071279 -23.86547852 232.24072266 C-23.86540298 231.27987762 -23.86532745 230.31903259 -23.86524963 229.32907104 C-23.86008835 228.28945221 -23.85492706 227.24983337 -23.84960938 226.17871094 C-23.84819443 225.11613068 -23.84677948 224.05355042 -23.84532166 222.95877075 C-23.83971146 219.55549335 -23.82715721 216.15228105 -23.81445312 212.74902344 C-23.80943944 210.44563897 -23.8048763 208.14225347 -23.80078125 205.83886719 C-23.78973872 200.18389695 -23.77299064 194.52896484 -23.75195312 188.87402344 C-24.42989426 188.8851265 -25.10783539 188.89622955 -25.80632019 188.90766907 C-32.86268946 189.01829131 -39.91881242 189.09370332 -46.97583008 189.14868164 C-49.6093954 189.17382501 -52.24289094 189.20794428 -54.8762207 189.2512207 C-58.66179621 189.31187554 -62.4464491 189.34023614 -66.23242188 189.36230469 C-67.99829903 189.40101433 -67.99829903 189.40101433 -69.79985046 189.44050598 C-77.96959344 189.44330889 -77.96959344 189.44330889 -81.97192383 186.53100586 C-84.38419763 182.93029597 -84.87764354 180.3378688 -84.89239502 176.10513306 C-84.89810516 175.12377884 -84.90381531 174.14242462 -84.90969849 173.1313324 C-84.91081635 172.05593704 -84.9119342 170.98054169 -84.91308594 169.87255859 C-84.91805084 168.73898422 -84.92301575 167.60540985 -84.9281311 166.43748474 C-84.94276243 162.67934568 -84.94955601 158.92124882 -84.95507812 155.16308594 C-84.96082832 152.55618284 -84.96658607 149.94927977 -84.97235107 147.34237671 C-84.98192097 142.57244933 -84.98781882 137.80253108 -84.99084783 133.03259528 C-84.99532889 126.01492773 -85.01288065 118.99745493 -85.04184842 111.9798466 C-85.06607764 105.89884921 -85.0737925 99.81793218 -85.07552338 93.73688889 C-85.07855418 91.1508821 -85.086597 88.56487623 -85.09970856 85.97890091 C-85.11673072 82.36387554 -85.11489799 78.74932634 -85.10839844 75.13427734 C-85.11761322 74.06293045 -85.126828 72.99158356 -85.13632202 71.88777161 C-85.08529751 62.84494645 -85.08529751 62.84494645 -81.75195312 58.87402344 C-81.30623459 58.28292282 -80.86051605 57.6918222 -80.40129089 57.08280945 C-78.03050827 55.34528247 -76.28072239 55.51341404 -73.36254883 55.53344727 C-72.26163406 55.53367386 -71.1607193 55.53390045 -70.02644348 55.53413391 C-68.83886948 55.54961777 -67.65129547 55.56510162 -66.42773438 55.58105469 C-65.21119675 55.58529953 -63.99465912 55.58954437 -62.74125671 55.59391785 C-58.84876542 55.61073493 -54.95678842 55.64839385 -51.06445312 55.68652344 C-48.42839288 55.7015663 -45.79232454 55.7152554 -43.15625 55.72753906 C-36.68797503 55.76064845 -30.22000081 55.81087839 -23.75195312 55.87402344 C-23.76527679 55.28822006 -23.77860046 54.70241669 -23.79232788 54.09886169 C-23.92541974 47.98304273 -24.01570845 41.86763728 -24.08154297 35.75073242 C-24.11165318 33.47028891 -24.15255113 31.18996062 -24.20458984 28.90991211 C-24.27765583 25.62552423 -24.31146814 22.34267157 -24.33789062 19.05761719 C-24.36885834 18.04380478 -24.39982605 17.02999237 -24.43173218 15.98545837 C-24.43218536 15.024991 -24.43263855 14.06452362 -24.43310547 13.07495117 C-24.44642914 12.23778061 -24.45975281 11.40061005 -24.47348022 10.53807068 C-21.16377382 -1.68214147 -10.53724092 -0.11024049 0 0 Z " fill="#128146" transform="translate(227.751953125,60.1259765625)"/>
<path d="M0 0 C10.23 0 20.46 0 31 0 C31 20.13 31 40.26 31 61 C63.01 61 95.02 61 128 61 C128.20081834 89.24844677 128.20081834 89.24844677 128.25126934 103.20211983 C128.27897625 110.74867606 128.31415097 118.29495596 128.37719727 125.84130859 C128.43242403 132.45486173 128.46141869 139.06819432 128.47438622 145.68198776 C128.48362796 148.20580122 128.50167483 150.72959824 128.52865028 153.25328445 C128.56492341 156.78721801 128.56994578 160.31991428 128.56762695 163.85400391 C128.58560333 164.89841644 128.60357971 165.94282898 128.62210083 167.01889038 C128.58934089 171.63005011 128.55771929 174.95187257 125.58952332 178.63412476 C121.61848185 182.26220126 118.8971938 182.15030286 113.73858643 182.15390015 C112.98157023 182.1582824 112.22455404 182.16266465 111.44459796 182.1671797 C108.89437795 182.18059129 106.34419252 182.18675185 103.79394531 182.19287109 C101.9708948 182.20077021 100.14784586 182.20903904 98.32479858 182.21765137 C92.32592263 182.24389372 86.32703961 182.25918129 80.328125 182.2734375 C78.26475774 182.27879629 76.20139054 182.28417379 74.13802338 182.28956985 C65.55616995 182.3112019 56.97431842 182.3299393 48.39244461 182.34119225 C36.08481969 182.35743546 23.77751028 182.39061864 11.47000432 182.44759309 C2.82110945 182.48626866 -5.82770095 182.50582212 -14.47668004 182.51111281 C-19.64469947 182.51476956 -24.81238255 182.52682518 -29.98030853 182.55921555 C-34.84278564 182.58925412 -39.70472214 182.59562304 -44.56727219 182.58383179 C-46.35148761 182.5836107 -48.13572781 182.59194492 -49.91985703 182.60948563 C-52.35744053 182.63214528 -54.79305842 182.62389884 -57.23065186 182.60800171 C-57.93552695 182.6218838 -58.64040205 182.63576588 -59.36663699 182.65006864 C-64.93904689 182.56062285 -67.21830669 180.79649207 -71 177 C-72.20887291 174.58225419 -72.12059343 173.06668936 -72.11352539 170.36669922 C-72.11344986 169.40585419 -72.11337433 168.44500916 -72.11329651 167.45504761 C-72.10813522 166.41542877 -72.10297394 165.37580994 -72.09765625 164.3046875 C-72.0962413 163.24210724 -72.09482635 162.17952698 -72.09336853 161.08474731 C-72.08775834 157.68146991 -72.07520409 154.27825762 -72.0625 150.875 C-72.05748631 148.57161553 -72.05292318 146.26823003 -72.04882812 143.96484375 C-72.0377856 138.30987351 -72.02103752 132.65494141 -72 127 C-72.67794113 127.01110306 -73.35588226 127.02220612 -74.05436707 127.03364563 C-81.11073634 127.14426787 -88.1668593 127.21967988 -95.22387695 127.2746582 C-97.85744227 127.29980157 -100.49093782 127.33392084 -103.12426758 127.37719727 C-106.90984309 127.4378521 -110.69449598 127.4662127 -114.48046875 127.48828125 C-116.2463459 127.52699089 -116.2463459 127.52699089 -118.04789734 127.56648254 C-127.15559121 127.56960725 -127.15559121 127.56960725 -130.29418945 124.61401367 C-132 122 -132 122 -131.8125 119.6875 C-131.544375 119.130625 -131.27625 118.57375 -131 118 C-131 118.66 -131 119.32 -131 120 C-130.54109375 119.65066406 -130.0821875 119.30132812 -129.609375 118.94140625 C-128.99578125 118.48636719 -128.3821875 118.03132813 -127.75 117.5625 C-127.14671875 117.11003906 -126.5434375 116.65757812 -125.921875 116.19140625 C-123.92447754 114.95318221 -122.27383249 114.51465344 -120 114 C-117.75151983 112.4789693 -115.92114936 110.92114936 -114 109 C-110.62485432 107.40124678 -108.83441243 107 -105 107 C-104.505 105.515 -104.505 105.515 -104 104 C-101.07920195 101.92469613 -99.62453269 101 -96 101 C-96 100.34 -96 99.68 -96 99 C-96.99 98.01 -96.99 98.01 -98 97 C-92.39 97 -86.78 97 -81 97 C-80.34 95.02 -79.68 93.04 -79 91 C-78.10378838 89.17826296 -77.1621133 87.37829001 -76.1796875 85.6015625 C-75.64472656 84.62832031 -75.10976562 83.65507812 -74.55859375 82.65234375 C-74.00300781 81.65332031 -73.44742188 80.65429688 -72.875 79.625 C-72.31167969 78.60277344 -71.74835938 77.58054687 -71.16796875 76.52734375 C-69.7830669 74.01574208 -68.39363545 71.50676281 -67 69 C-63.79011264 71.8877542 -62.17619783 74.39150422 -60.58203125 78.38671875 C-56.5401817 89.25151462 -56.5401817 89.25151462 -48.78076172 97.16992188 C-43.77316026 98.37416304 -39.02378622 97.89880535 -34 97 C-34.42933838 96.35450195 -34.85867676 95.70900391 -35.30102539 95.04394531 C-37.23463511 92.12106523 -39.14867897 89.18587119 -41.0625 86.25 C-42.07666992 84.72632813 -42.07666992 84.72632813 -43.11132812 83.171875 C-43.74619141 82.1921875 -44.38105469 81.2125 -45.03515625 80.203125 C-45.6269165 79.30239258 -46.21867676 78.40166016 -46.82836914 77.47363281 C-48 75 -48 75 -47.68530273 72.67480469 C-47.34607788 71.84577637 -47.34607788 71.84577637 -47 71 C-46.38125 70.896875 -45.7625 70.79375 -45.125 70.6875 C-42.63473516 70.12474627 -42.63473516 70.12474627 -41 67 C-38.67451993 66.30643577 -36.34119555 65.63850788 -34 65 C-33.505 64.01 -33.505 64.01 -33 63 C-31.68 63 -30.36 63 -29 63 C-28.67 61.68 -28.34 60.36 -28 59 C-25.36 58.34 -22.72 57.68 -20 57 C-20 56.34 -20 55.68 -20 55 C-19.443125 54.731875 -18.88625 54.46375 -18.3125 54.1875 C-15.9160243 53.00101623 -15.9160243 53.00101623 -13.4375 51.375 C-11 50 -11 50 -8 50 C-7.525625 49.360625 -7.05125 48.72125 -6.5625 48.0625 C-4.77509389 45.70312394 -3.86332753 45.39494173 -1 45 C-1 46.65 -1 48.3 -1 50 C-2.65 50 -4.3 50 -6 50 C-4.35 50.33 -2.7 50.66 -1 51 C-0.505 25.755 -0.505 25.755 0 0 Z " fill="#185C37" transform="translate(276,122)"/>
<path d="M0 0 C32.01 0 64.02 0 97 0 C97 20.13 97 40.26 97 61 C64.99 61 32.98 61 0 61 C0 40.87 0 20.74 0 0 Z " fill="#20A265" transform="translate(307,122)"/>
<path d="M0 0 C22.22028037 -0.20054405 22.22028037 -0.20054405 31.69921875 -0.24414062 C38.16475973 -0.27401864 44.62994633 -0.30934642 51.09521484 -0.37719727 C56.30830135 -0.43156388 61.52100778 -0.46143059 66.73435593 -0.47438622 C68.72229368 -0.48361768 70.71021086 -0.50164485 72.6979866 -0.52865028 C75.48482292 -0.56500236 78.27009326 -0.56994277 81.05712891 -0.56762695 C81.87712372 -0.58560333 82.69711853 -0.60357971 83.54196167 -0.62210083 C87.67154106 -0.58502295 90.2283906 -0.22910422 93.49642944 2.41047668 C96.90285251 5.9338493 97.12460778 7.41865625 97.11352539 12.18408203 C97.11340454 13.28018799 97.11328369 14.37629395 97.11315918 15.50561523 C97.10804321 16.66134033 97.10292725 17.81706543 97.09765625 19.0078125 C97.09664917 20.06734131 97.09564209 21.12687012 97.09460449 22.21850586 C97.08936107 26.1873482 97.07539988 30.15617516 97.0625 34.125 C97.041875 42.99375 97.02125 51.8625 97 61 C64.99 61 32.98 61 0 61 C0 40.87 0 20.74 0 0 Z " fill="#33C380" transform="translate(307,61)"/>
<path d="M0 0 C32.01 0 64.02 0 97 0 C97 19.8 97 39.6 97 60 C64.99 60 32.98 60 0 60 C0 40.2 0 20.4 0 0 Z " fill="#0F7B40" transform="translate(307,183)"/>
<path d="M0 0 C1.42045876 -0.00153328 1.42045876 -0.00153328 2.86961365 -0.00309753 C5.98731333 0.00176403 9.1020529 0.05613818 12.21923828 0.11108398 C14.38541057 0.12414525 16.55160357 0.13410692 18.71780396 0.14109802 C24.40980463 0.16778158 30.10054812 0.23650832 35.79205322 0.31402588 C42.62590556 0.39834142 49.46017909 0.43038517 56.29440308 0.47119904 C66.66865909 0.53900245 77.04015858 0.67314804 87.41455078 0.79467773 C87.41455078 20.92467773 87.41455078 41.05467773 87.41455078 61.79467773 C78.83455078 61.79467773 70.25455078 61.79467773 61.41455078 61.79467773 C59.76455078 60.14467773 58.11455078 58.49467773 56.41455078 56.79467773 C53.53473308 56.10937241 51.33569661 55.85674465 48.41455078 55.79467773 C47.36517334 55.77162567 46.3157959 55.74857361 45.23461914 55.724823 C41.36706393 55.6779493 37.50096226 55.68202931 33.63330078 55.69702148 C32.20983938 55.69888971 30.78637732 55.7003117 29.36291504 55.7013092 C25.64101341 55.70510255 21.91915165 55.71490517 18.19726562 55.72601318 C14.38949116 55.73629621 10.58171017 55.7408215 6.77392578 55.74584961 C-0.67921727 55.75653071 -8.13232763 55.77356828 -15.58544922 55.79467773 C-15.73800563 49.08721166 -15.84283405 42.38019541 -15.91503906 35.67138672 C-15.94514927 33.39094321 -15.98604722 31.11061492 -16.03808594 28.83056641 C-16.11115193 25.54617852 -16.14496424 22.26332586 -16.17138672 18.97827148 C-16.20235443 17.96445908 -16.23332214 16.95064667 -16.26522827 15.90611267 C-16.26590805 14.46541161 -16.26590805 14.46541161 -16.26660156 12.99560547 C-16.27992523 12.15843491 -16.2932489 11.32126434 -16.30697632 10.45872498 C-13.94553145 1.73971678 -8.32363965 -0.2365808 0 0 Z " fill="#21A366" transform="translate(219.58544921875,60.205322265625)"/>
<path d="M0 0 C0.33 0 0.66 0 1 0 C1.07262229 19.33350253 1.07135056 38.6665348 1 58 C0.99745964 58.71275589 0.99491928 59.42551178 0.99230194 60.15986633 C0.95834365 69.35935313 0.89497169 78.55801692 0.79147339 87.75698853 C0.76179708 90.45717784 0.74152682 93.15719 0.72927856 95.85751343 C0.70820128 99.64116357 0.66204513 103.42370679 0.609375 107.20703125 C0.60814133 108.33154694 0.60690765 109.45606262 0.6056366 110.61465454 C0.46108614 118.20903654 0.46108614 118.20903654 -1.85058594 122.17456055 C-5.10571819 124.93905667 -7.76579861 125.1277016 -11.88278198 125.15390015 C-12.88937866 125.16250061 -13.89597534 125.17110107 -14.93307495 125.17996216 C-16.03652252 125.18422211 -17.13997009 125.18848206 -18.27685547 125.19287109 C-20.02110809 125.20513733 -20.02110809 125.20513733 -21.80059814 125.21765137 C-25.65612266 125.24250442 -29.51161042 125.25901909 -33.3671875 125.2734375 C-34.682103 125.27876118 -35.99701851 125.28408485 -37.35177994 125.28956985 C-42.87634529 125.31119003 -48.40090776 125.32992718 -53.92550468 125.34119225 C-61.83946135 125.35743685 -69.75292752 125.39063593 -77.66669929 125.44759309 C-83.2336709 125.48629302 -88.80051131 125.50582478 -94.36761391 125.51111281 C-97.69184123 125.51476559 -101.01542474 125.52927603 -104.33953476 125.55921555 C-108.04819095 125.59071925 -111.75560144 125.59092551 -115.46435547 125.58349609 C-116.56375458 125.59990143 -117.66315369 125.61630676 -118.79586792 125.63320923 C-127.08588304 125.56508251 -127.08588304 125.56508251 -130.23269653 122.60806274 C-132 120 -132 120 -131.8125 117.6875 C-131.544375 117.130625 -131.27625 116.57375 -131 116 C-131 116.66 -131 117.32 -131 118 C-130.54109375 117.65066406 -130.0821875 117.30132812 -129.609375 116.94140625 C-128.99578125 116.48636719 -128.3821875 116.03132813 -127.75 115.5625 C-127.14671875 115.11003906 -126.5434375 114.65757812 -125.921875 114.19140625 C-123.92447754 112.95318221 -122.27383249 112.51465344 -120 112 C-117.75151983 110.4789693 -115.92114936 108.92114936 -114 107 C-110.62485432 105.40124678 -108.83441243 105 -105 105 C-104.505 103.515 -104.505 103.515 -104 102 C-101.07920195 99.92469613 -99.62453269 99 -96 99 C-96 98.34 -96 97.68 -96 97 C-96.99 96.01 -96.99 96.01 -98 95 C-92.39 95 -86.78 95 -81 95 C-80.34 93.02 -79.68 91.04 -79 89 C-78.10378838 87.17826296 -77.1621133 85.37829001 -76.1796875 83.6015625 C-75.64472656 82.62832031 -75.10976562 81.65507812 -74.55859375 80.65234375 C-74.00300781 79.65332031 -73.44742188 78.65429688 -72.875 77.625 C-72.31167969 76.60277344 -71.74835938 75.58054687 -71.16796875 74.52734375 C-69.7830669 72.01574208 -68.39363545 69.50676281 -67 67 C-63.79011264 69.8877542 -62.17619783 72.39150422 -60.58203125 76.38671875 C-56.5401817 87.25151462 -56.5401817 87.25151462 -48.78076172 95.16992188 C-43.77316026 96.37416304 -39.02378622 95.89880535 -34 95 C-34.42933838 94.35450195 -34.85867676 93.70900391 -35.30102539 93.04394531 C-37.23463511 90.12106523 -39.14867897 87.18587119 -41.0625 84.25 C-42.07666992 82.72632813 -42.07666992 82.72632813 -43.11132812 81.171875 C-43.74619141 80.1921875 -44.38105469 79.2125 -45.03515625 78.203125 C-45.6269165 77.30239258 -46.21867676 76.40166016 -46.82836914 75.47363281 C-48 73 -48 73 -47.68530273 70.67480469 C-47.34607788 69.84577637 -47.34607788 69.84577637 -47 69 C-46.38125 68.896875 -45.7625 68.79375 -45.125 68.6875 C-42.63473516 68.12474627 -42.63473516 68.12474627 -41 65 C-38.67451993 64.30643577 -36.34119555 63.63850788 -34 63 C-33.505 62.01 -33.505 62.01 -33 61 C-31.68 61 -30.36 61 -29 61 C-28.67 59.68 -28.34 58.36 -28 57 C-25.36 56.34 -22.72 55.68 -20 55 C-20 54.34 -20 53.68 -20 53 C-19.443125 52.731875 -18.88625 52.46375 -18.3125 52.1875 C-15.9160243 51.00101623 -15.9160243 51.00101623 -13.4375 49.375 C-11 48 -11 48 -8 48 C-7.525625 47.360625 -7.05125 46.72125 -6.5625 46.0625 C-4.77509389 43.70312394 -3.86332753 43.39494173 -1 43 C-1 44.65 -1 46.3 -1 48 C-2.65 48 -4.3 48 -6 48 C-4.35 48.33 -2.7 48.66 -1 49 C-0.67 32.83 -0.34 16.66 0 0 Z " fill="#0D7139" transform="translate(276,124)"/>
<path d="M0 0 C1.98 0 3.96 0 6 0 C6 20.13 6 40.26 6 61 C8.31 61 10.62 61 13 61 C13.0928022 70.02317278 13.1638165 79.04618052 13.20724869 88.06972694 C13.22809718 92.26003538 13.25636416 96.45001659 13.30175781 100.64013672 C13.34531419 104.68612242 13.3691577 108.73179395 13.37950897 112.77799606 C13.38688286 114.31934935 13.40128257 115.86068602 13.42292023 117.40190506 C13.45208611 119.56599936 13.45595076 121.72880625 13.45410156 123.89306641 C13.46298401 125.12328522 13.47186646 126.35350403 13.48101807 127.6210022 C12.90203464 131.6881753 11.59798588 133.84947853 9 137 C8.01 137.33 7.02 137.66 6 138 C5.29848848 139.3153341 4.63474075 140.65117592 4 142 C2.87760925 143.60578918 2.87760925 143.60578918 1 145 C-2.13212585 145.39872742 -2.13212585 145.39872742 -6.04174805 145.43237305 C-6.75419678 145.4425647 -7.46664551 145.45275635 -8.20068359 145.46325684 C-10.55444142 145.49343951 -12.90779265 145.50266047 -15.26171875 145.51171875 C-16.89412291 145.5285616 -18.52651406 145.5467113 -20.15888977 145.56611633 C-24.45455869 145.6136656 -28.75017491 145.64344292 -33.04602051 145.66955566 C-37.42987478 145.69933646 -41.81354736 145.74587525 -46.19726562 145.79101562 C-54.79810307 145.87710489 -63.39892134 145.94287619 -72 146 C-72 139.73 -72 133.46 -72 127 C-69.07000122 126.96241577 -69.07000122 126.96241577 -66.08081055 126.92407227 C-59.63068054 126.84021356 -53.1806227 126.75194585 -46.73059368 126.66066074 C-42.81952916 126.60547057 -38.9084571 126.55205681 -34.99731445 126.50268555 C-31.22363082 126.45498438 -27.45003769 126.40263949 -23.67646217 126.34705925 C-22.23597273 126.32666176 -20.79545849 126.30794438 -19.35492516 126.29092598 C-17.33901658 126.26682457 -15.32318886 126.2362232 -13.30737305 126.20532227 C-12.15931686 126.18977798 -11.01126068 126.1742337 -9.82841492 126.15821838 C-6.52849239 125.97362439 -4.65577588 125.68862464 -2.33952332 123.25634766 C-0.75314385 120.58418545 -0.60604362 118.99100557 -0.56762695 115.8984375 C-0.54783783 114.86902542 -0.52804871 113.83961334 -0.50765991 112.77900696 C-0.50126495 111.65568466 -0.49487 110.53236237 -0.48828125 109.375 C-0.47028473 108.18798996 -0.45228821 107.00097992 -0.43374634 105.77799988 C-0.38808877 102.52869425 -0.35588667 99.27960154 -0.33024216 96.03008652 C-0.30656121 93.32047452 -0.27194776 90.61104777 -0.23732471 87.90155697 C0.13440696 58.60315343 0.10558438 29.30002377 0 0 Z " fill="#114429" transform="translate(276,122)"/>
<path d="M0 0 C5.94 0 11.88 0 18 0 C19.60755738 3.01907118 21.21112349 6.04015241 22.8125 9.0625 C23.26431641 9.91005859 23.71613281 10.75761719 24.18164062 11.63085938 C26.67732437 16.34897682 28.98170269 21.05818897 31 26 C33.68253727 22.62384717 35.82109838 18.99478828 37.9375 15.25 C38.28941406 14.63108887 38.64132813 14.01217773 39.00390625 13.37451172 C41.48466117 8.98380521 43.81720029 4.54749939 46 0 C51.28 0 56.56 0 62 0 C60.30400271 4.23999323 58.51894162 7.59249775 56.12109375 11.4375 C55.35722562 12.67435798 54.59355984 13.91134096 53.83007812 15.1484375 C52.63248434 17.0789459 51.43255144 19.0079201 50.22875977 20.93457031 C49.06127607 22.80654947 47.90319374 24.68409031 46.74609375 26.5625 C46.05185303 27.67753906 45.3576123 28.79257813 44.64233398 29.94140625 C43.10297998 32.80821567 42.17519243 34.76580708 42 38 C42.79242675 40.15858685 42.79242675 40.15858685 44.2109375 42.15234375 C44.95972168 43.30778687 44.95972168 43.30778687 45.72363281 44.48657227 C46.26858398 45.29537842 46.81353516 46.10418457 47.375 46.9375 C47.91995117 47.77273193 48.46490234 48.60796387 49.02636719 49.46850586 C50.67180156 51.9874454 52.33499825 54.49396663 54 57 C55.36079775 59.07450924 56.71610729 61.15231401 58.06494141 63.23461914 C58.84010795 64.43026643 59.62082656 65.62233706 60.40771484 66.81030273 C63 70.77743133 63 70.77743133 63 73 C57.39 73 51.78 73 46 73 C38.5 59.5 38.5 59.5 31 46 C25.84882048 54.92425128 20.84919076 63.90776732 16 73 C10.06 73 4.12 73 -2 73 C1.83455222 66.2478537 5.79564409 59.6910791 10.125 53.25 C10.55321045 52.61006104 10.9814209 51.97012207 11.42260742 51.31079102 C13.19016975 48.67399184 14.96681246 46.04749376 16.78515625 43.4453125 C19.36344641 39.82117837 19.36344641 39.82117837 19.75219727 35.54858398 C19.00997424 33.03379457 18.11392072 31.09586226 16.77734375 28.84765625 C16.32464111 28.07719971 15.87193848 27.30674316 15.40551758 26.51293945 C14.92107178 25.70429443 14.43662598 24.89564941 13.9375 24.0625 C12.93973384 22.37000993 11.94234148 20.67729944 10.9453125 18.984375 C10.4493457 18.14712891 9.95337891 17.30988281 9.44238281 16.44726562 C7.36457057 12.92187803 5.33535723 9.36960997 3.3125 5.8125 C2.219375 3.894375 1.12625 1.97625 0 0 Z " fill="#F8FAF9" transform="translate(179,146)"/>
<path d="M0 0 C1.98 0 3.96 0 6 0 C6.14017681 16.60268839 6.24597381 33.20518477 6.31087303 49.80832195 C6.34180824 57.5175168 6.38398155 65.22634392 6.45263672 72.93530273 C6.51244998 79.65465074 6.55115161 86.37373244 6.56453097 93.09333926 C6.57235181 96.65131873 6.59072309 100.20853638 6.63438034 103.76627159 C6.68272765 107.73845038 6.68393858 111.70988465 6.68115234 115.68237305 C6.702724 116.8612912 6.72429565 118.04020935 6.746521 119.25485229 C6.6884302 126.88868449 6.6884302 126.88868449 4.86455154 129.8329258 C-0.26656903 134.63166822 -7.09736592 134.12653987 -13.66967773 134.11352539 C-14.95047714 134.11344986 -16.23127655 134.11337433 -17.55088806 134.11329651 C-18.92845703 134.10819145 -20.30602559 134.10297548 -21.68359375 134.09765625 C-23.1084844 134.0957886 -24.53337569 134.09436634 -25.95826721 134.09336853 C-29.6884034 134.08957066 -33.41849996 134.07976402 -37.14862061 134.06866455 C-40.96300725 134.05839141 -44.77740036 134.05385832 -48.59179688 134.04882812 C-56.06121588 134.03813902 -63.53060236 134.0210958 -71 134 C-71 135.98 -71 137.96 -71 140 C-71.33 140 -71.66 140 -72 140 C-72 135.71 -72 131.42 -72 127 C-69.07000122 126.96241577 -69.07000122 126.96241577 -66.08081055 126.92407227 C-59.63068054 126.84021356 -53.1806227 126.75194585 -46.73059368 126.66066074 C-42.81952916 126.60547057 -38.9084571 126.55205681 -34.99731445 126.50268555 C-31.22363082 126.45498438 -27.45003769 126.40263949 -23.67646217 126.34705925 C-22.23597273 126.32666176 -20.79545849 126.30794438 -19.35492516 126.29092598 C-17.33901658 126.26682457 -15.32318886 126.2362232 -13.30737305 126.20532227 C-12.15931686 126.18977798 -11.01126068 126.1742337 -9.82841492 126.15821838 C-6.52849239 125.97362439 -4.65577588 125.68862464 -2.33952332 123.25634766 C-0.75314385 120.58418545 -0.60604362 118.99100557 -0.56762695 115.8984375 C-0.54783783 114.86902542 -0.52804871 113.83961334 -0.50765991 112.77900696 C-0.50126495 111.65568466 -0.49487 110.53236237 -0.48828125 109.375 C-0.47028473 108.18798996 -0.45228821 107.00097992 -0.43374634 105.77799988 C-0.38808877 102.52869425 -0.35588667 99.27960154 -0.33024216 96.03008652 C-0.30656121 93.32047452 -0.27194776 90.61104777 -0.23732471 87.90155697 C0.13440696 58.60315343 0.10558438 29.30002377 0 0 Z " fill="#0B321D" transform="translate(276,122)"/>
<path d="M0 0 C5.94 0 11.88 0 18 0 C18 19.8 18 39.6 18 60 C11.73 60 5.46 60 -1 60 C-0.505 30.3 -0.505 30.3 0 0 Z " fill="#107C41" transform="translate(289,122)"/>
<path d="M0 0 C9.93584837 -0.09276894 19.87159333 -0.16379998 29.80778694 -0.20724869 C34.42181851 -0.22810426 39.03555329 -0.25638462 43.64941406 -0.30175781 C48.10387963 -0.34528828 52.55806012 -0.36915238 57.01272202 -0.37950897 C58.71037151 -0.38688745 60.40800579 -0.40129606 62.1055336 -0.42292023 C64.48752543 -0.4520508 66.86834636 -0.4559521 69.25048828 -0.45410156 C70.2981411 -0.47567322 70.2981411 -0.47567322 71.36695862 -0.49768066 C76.34738884 -0.45594297 79.17488898 0.86566054 83 4 C84.59381802 6.97029722 85 8.62389977 85 12 C79.79753313 12.44088702 79.79753313 12.44088702 77 12 C75.31237149 10.3545622 73.6459651 8.68711423 72 7 C64.51509369 5.48549365 56.82379068 5.87286442 49.21875 5.90234375 C47.79528859 5.90421197 46.37182654 5.90563397 44.94836426 5.90663147 C41.22646263 5.91042482 37.50460087 5.92022743 33.78271484 5.93133545 C29.97494038 5.94161848 26.16715939 5.94614377 22.359375 5.95117188 C14.90623195 5.96185298 7.45312159 5.97889054 0 6 C0 4.02 0 2.04 0 0 Z " fill="#1D9059" transform="translate(204,110)"/>
<path d="M0 0 C2.31 0 4.62 0 7 0 C7.0928022 9.02317278 7.1638165 18.04618052 7.20724869 27.06972694 C7.22809718 31.26003538 7.25636416 35.45001659 7.30175781 39.64013672 C7.34531419 43.68612242 7.3691577 47.73179395 7.37950897 51.77799606 C7.38688286 53.31934935 7.40128257 54.86068602 7.42292023 56.40190506 C7.45208611 58.56599936 7.45595076 60.72880625 7.45410156 62.89306641 C7.46298401 64.12328522 7.47186646 65.35350403 7.48101807 66.6210022 C6.90203464 70.6881753 5.59798588 72.84947853 3 76 C1.515 76.495 1.515 76.495 0 77 C0 51.59 0 26.18 0 0 Z " fill="#144F2F" transform="translate(282,183)"/>
<path d="M0 0 C0.75 1.6875 0.75 1.6875 1 4 C-1.08117669 7.12176503 -2.86651634 8.91101089 -6 11 C-8.79045105 11.24050903 -8.79045105 11.24050903 -12.21557617 11.22705078 C-13.4966777 11.22689972 -14.77777924 11.22674866 -16.09770203 11.22659302 C-17.49612584 11.21637973 -18.89454808 11.20594774 -20.29296875 11.1953125 C-21.72357485 11.19158178 -23.15418352 11.18873509 -24.58479309 11.18673706 C-28.34792144 11.17910522 -32.11089511 11.15946069 -35.8739624 11.1373291 C-39.71478178 11.11686094 -43.55562617 11.10773327 -47.39648438 11.09765625 C-54.93106006 11.07621429 -62.46550834 11.04208387 -70 11 C-70 12.98 -70 14.96 -70 17 C-70.33 17 -70.66 17 -71 17 C-71 12.71 -71 8.42 -71 4 C-69.06237793 3.98541748 -67.12475586 3.97083496 -65.12841797 3.95581055 C-58.71413027 3.90408689 -52.30009232 3.83878154 -45.8860302 3.76428509 C-41.99858564 3.71962835 -38.11124475 3.68036217 -34.22363281 3.65356445 C-30.46923713 3.62748417 -26.71524134 3.58704914 -22.9610939 3.53681374 C-21.53148512 3.52017679 -20.10180722 3.50864277 -18.67211533 3.50238609 C-16.66394765 3.49271133 -14.65590777 3.46292573 -12.64794922 3.43237305 C-11.50655487 3.42126999 -10.36516052 3.41016693 -9.18917847 3.39872742 C-5.59617019 2.94951113 -3.12787556 1.78265897 0 0 Z " fill="#092E1A" transform="translate(275,245)"/>
<path d="M0 0 C2.31 0 4.62 0 7 0 C7 19.47 7 38.94 7 59 C12.94 59.33 18.88 59.66 25 60 C25 60.33 25 60.66 25 61 C16.75 61 8.5 61 0 61 C0 40.87 0 20.74 0 0 Z " fill="#0D6B36" transform="translate(282,122)"/>
<path d="M0 0 C1.98 0 3.96 0 6 0 C6 20.13 6 40.26 6 61 C4.35 61 2.7 61 1 61 C1 80.14 1 99.28 1 119 C0.67 119 0.34 119 0 119 C0 79.73 0 40.46 0 0 Z " fill="#084825" transform="translate(276,122)"/>
<path d="M0 0 C3.73392649 3.48705532 5.1922884 6.29994983 7 11 C5.02 11.33 3.04 11.66 1 12 C0.67 12.99 0.34 13.98 0 15 C-3.15378602 17.19012918 -6.40924853 18.66629231 -10 20 C-8.34229667 15.50675151 -6.15017838 11.38813854 -3.875 7.1875 C-3.50246094 6.49462891 -3.12992188 5.80175781 -2.74609375 5.08789062 C-1.83309623 3.39065164 -0.91687284 1.69514862 0 0 Z " fill="#157E44" transform="translate(209,191)"/>
<path d="M0 0 C2.6875 -0.3125 2.6875 -0.3125 6 0 C8.875 2.4375 8.875 2.4375 11 5 C11 5.33 11 5.66 11 6 C9.02 6.33 7.04 6.66 5 7 C4.731875 6.401875 4.46375 5.80375 4.1875 5.1875 C3.01506533 3.02775192 1.80630718 1.64209744 0 0 Z " fill="#175D37" transform="translate(270,116)"/>
<path d="M0 0 C1.32 1.32 2.64 2.64 4 4 C2.02 4.99 2.02 4.99 0 6 C-0.66 5.34 -1.32 4.68 -2 4 C-1.34 2.68 -0.68 1.36 0 0 Z " fill="#1E824A" transform="translate(209,191)"/>
</svg>
