<?xml version="1.0" encoding="UTF-8"?>
<svg version="1.1" xmlns="http://www.w3.org/2000/svg" width="320" height="320">
<path d="M0 0 C105.6 0 211.2 0 320 0 C320 105.6 320 211.2 320 320 C214.4 320 108.8 320 0 320 C0 214.4 0 108.8 0 0 Z " fill="#FDFDFD" transform="translate(0,0)"/>
<path d="M0 0 C4.40054378 3.71072881 8.70250319 7.48829789 12.890625 11.4375 C13.63828125 12.12070312 14.3859375 12.80390625 15.15625 13.5078125 C38.01265085 35.16545106 53.64102672 70.07210328 55.01660156 101.29711914 C55.90013849 137.48578519 48.30553731 172.74732537 24.890625 201.4375 C24.42011719 202.02321777 23.94960938 202.60893555 23.46484375 203.21240234 C7.14411029 223.39262324 -14.26628597 240.06182999 -39.109375 248.4375 C-39.80417969 248.68113281 -40.49898437 248.92476563 -41.21484375 249.17578125 C-42.15263672 249.30533203 -42.15263672 249.30533203 -43.109375 249.4375 C-49.85692188 243.65388839 -49.85692188 243.65388839 -50.36766052 239.16990662 C-50.3740731 237.83948082 -50.3740731 237.83948082 -50.38061523 236.48217773 C-50.39080185 235.47360214 -50.40098846 234.46502655 -50.41148376 233.42588806 C-50.41362381 232.33530594 -50.41576385 231.24472382 -50.41796875 230.12109375 C-50.44314533 227.80663829 -50.46854309 225.49218522 -50.49414062 223.17773438 C-50.52278818 219.53312901 -50.54680477 215.88856568 -50.56567383 212.24389648 C-50.58746191 208.7235656 -50.62693033 205.20374543 -50.66796875 201.68359375 C-50.66814247 200.06897499 -50.66814247 200.06897499 -50.6683197 198.42173767 C-50.80378131 187.9550911 -52.50597007 179.90230119 -60.109375 172.4375 C-61.1099113 171.43803658 -62.10998245 170.43810709 -63.109375 169.4375 C-61.98462769 169.24957886 -61.98462769 169.24957886 -60.8371582 169.05786133 C-30.26401335 164.2427673 -30.26401335 164.2427673 -5.95703125 146.140625 C2.79008197 133.34357986 6.2639996 118.78032808 6.890625 103.4375 C6.94347656 102.2515625 6.99632812 101.065625 7.05078125 99.84375 C7.47450548 82.01048688 3.19144291 66.30668561 -8.109375 52.4375 C-8.769375 51.7775 -9.429375 51.1175 -10.109375 50.4375 C-10.28881836 47.49169922 -10.28881836 47.49169922 -10.19921875 43.7421875 C-10.17877307 42.37239974 -10.15859977 41.00260789 -10.13867188 39.6328125 C-10.09543588 37.48029514 -10.04726758 35.32804706 -9.99291992 33.17578125 C-9.69055106 21.97400838 -9.69055106 21.97400838 -13.109375 11.4375 C-27.85077078 10.48352558 -39.65183104 17.37010164 -52.109375 24.4375 C-52.439375 24.7675 -52.769375 25.0975 -53.109375 25.4375 C-54.63393539 25.37211924 -56.15555964 25.23380891 -57.671875 25.0625 C-58.91130859 24.92714844 -58.91130859 24.92714844 -60.17578125 24.7890625 C-62.38166409 24.52470903 -64.58420758 24.23225394 -66.78466797 23.92602539 C-70.93564811 23.40870781 -75.05811801 23.27618512 -79.23828125 23.26953125 C-79.99044418 23.26620285 -80.74260712 23.26287445 -81.51756287 23.25944519 C-83.10162756 23.25441511 -84.68570272 23.25203564 -86.26977539 23.25219727 C-88.64162616 23.25002767 -91.01299785 23.2318766 -93.38476562 23.21289062 C-104.26614849 23.171877 -115.34630794 23.30019768 -125.80981445 26.60693359 C-129.109375 27.4375 -129.109375 27.4375 -132.6875 25.83984375 C-133.92485889 25.0385526 -135.14850727 24.21578764 -136.359375 23.375 C-137.6756446 22.52438951 -138.99467831 21.67804148 -140.31640625 20.8359375 C-140.95916504 20.42182617 -141.60192383 20.00771484 -142.26416016 19.58105469 C-151.30764205 13.97644114 -160.49392309 11.05837672 -171.109375 11.4375 C-174.83619453 22.0855558 -176.90452997 32.70467843 -174.58984375 43.96484375 C-173.63908394 48.8577784 -173.4021496 52.20892254 -175.9375 56.61328125 C-176.73671875 57.64839844 -177.5359375 58.68351562 -178.359375 59.75 C-186.76861596 71.08476473 -188.28948047 80.85973171 -188.296875 94.6875 C-188.31524414 96.47220703 -188.31524414 96.47220703 -188.33398438 98.29296875 C-188.34505464 104.97203089 -187.93956356 111.01015923 -186.109375 117.4375 C-185.82578125 118.53835937 -185.5421875 119.63921875 -185.25 120.7734375 C-180.51073654 136.94513474 -171.95986407 149.90776401 -157.109375 158.4375 C-144.12233581 164.90392563 -130.4231261 167.91390745 -116.109375 169.4375 C-116.50769531 169.88480469 -116.90601563 170.33210937 -117.31640625 170.79296875 C-122.52650736 176.47454804 -122.52650736 176.47454804 -125.56640625 183.41796875 C-126.16059231 185.76478994 -126.72950164 187.43906272 -128.109375 189.4375 C-135.48234194 193.36454765 -145.56439747 193.7494032 -153.5859375 191.8515625 C-160.10703301 189.40895284 -163.84586534 184.74941368 -168.109375 179.4375 C-175.67992308 169.96304924 -175.67992308 169.96304924 -186.109375 164.4375 C-189.45022276 164.28821713 -192.76798817 164.32071366 -196.109375 164.4375 C-194.02113741 168.38950664 -191.92692259 170.55441331 -188.296875 173.125 C-182.98635375 177.24084666 -180.15056952 181.52067741 -177.109375 187.4375 C-169.88404503 201.33924651 -169.88404503 201.33924651 -156.69140625 209.0078125 C-150.7477416 210.76260873 -145.13834906 210.77767493 -138.984375 210.625 C-137.9325 210.61146484 -136.880625 210.59792969 -135.796875 210.58398438 C-133.23381546 210.54903356 -130.67188587 210.49997682 -128.109375 210.4375 C-128.00999405 214.60003275 -127.93766883 218.76192479 -127.88964844 222.92529297 C-127.86961657 224.33947795 -127.84238252 225.75358097 -127.80761719 227.16748047 C-127.75872011 229.20821419 -127.73632377 231.2478469 -127.71875 233.2890625 C-127.6873291 235.12718506 -127.6873291 235.12718506 -127.65527344 237.00244141 C-128.35263291 242.27762838 -131.21282995 245.93060945 -135.109375 249.4375 C-166.29394591 242.24106056 -194.32772171 216.68855198 -211.109375 190.4375 C-220.89302702 174.13250401 -227.53876763 157.11816107 -231.109375 138.4375 C-231.31433594 137.46039063 -231.51929688 136.48328125 -231.73046875 135.4765625 C-238.13979224 99.67275541 -229.17675758 61.85704481 -208.734375 31.9375 C-203.49790669 24.50253582 -197.45592282 17.92787893 -191.109375 11.4375 C-190.44679687 10.71304688 -189.78421875 9.98859375 -189.1015625 9.2421875 C-140.77210985 -42.43475971 -53.47116381 -42.9918905 0 0 Z " fill="#020202" transform="translate(249.109375,50.5625)"/>
</svg>
