<?xml version="1.0" encoding="UTF-8"?>
<svg version="1.1" xmlns="http://www.w3.org/2000/svg" width="512" height="512">
<path d="M0 0 C168.96 0 337.92 0 512 0 C512 168.96 512 337.92 512 512 C343.04 512 174.08 512 0 512 C0 343.04 0 174.08 0 0 Z " fill="#0077B5" transform="translate(0,0)"/>
<path d="M0 0 C0.94979736 -0.01023193 1.89959473 -0.02046387 2.87817383 -0.03100586 C17.17567886 0.14593427 31.36651446 5.23345625 42.3125 14.4375 C43.13105469 15.05882812 43.94960938 15.68015625 44.79296875 16.3203125 C58.16052561 27.55320524 64.46621799 46.84099389 66.10009575 63.61581039 C66.45737419 68.36208485 66.44293818 73.09653627 66.42602539 77.85400391 C66.42617142 78.94786407 66.42631744 80.04172424 66.4264679 81.16873169 C66.42577645 84.75052946 66.41802031 88.33227391 66.41015625 91.9140625 C66.40828934 94.41083752 66.40686672 96.90761291 66.40586853 99.40438843 C66.40206487 105.95063299 66.39225309 112.49685509 66.38116455 119.04309082 C66.36845474 126.91102971 66.36453794 134.77898063 66.35871124 142.64692688 C66.34904009 154.57713351 66.32986847 166.50729092 66.3125 178.4375 C47.1725 178.4375 28.0325 178.4375 8.3125 178.4375 C8.27511719 171.06921875 8.23773438 163.7009375 8.19921875 156.109375 C8.16892109 151.42445636 8.13776137 146.73957489 8.10351562 142.0546875 C8.04931368 134.62860041 7.99819879 127.20258683 7.96606445 119.77636719 C7.93993888 113.78509554 7.89947119 107.79407257 7.84931374 101.80295563 C7.83270748 99.52421425 7.82115454 97.24542992 7.81488609 94.96663666 C8.21694544 71.94997743 8.21694544 71.94997743 -2.6875 52.4375 C-10.10853533 46.47104147 -18.53803412 46.51538138 -27.6875 47.4375 C-35.22135385 48.89875623 -41.88651884 53.76248579 -46.5 59.8125 C-51.16456716 67.17897376 -52.13249516 73.62093856 -52.11987305 82.16796875 C-52.1300647 83.21276901 -52.14025635 84.25756927 -52.15075684 85.33403015 C-52.18078944 88.76440868 -52.1901381 92.1945075 -52.19921875 95.625 C-52.2160726 98.01254192 -52.2342238 100.40007501 -52.25361633 102.78759766 C-52.3010454 109.05435424 -52.33090084 115.32107499 -52.35705566 121.58795166 C-52.39214869 129.11635997 -52.44914134 136.64463072 -52.50244904 144.17292786 C-52.58087969 155.5944343 -52.63154892 167.01576168 -52.6875 178.4375 C-71.8275 178.4375 -90.9675 178.4375 -110.6875 178.4375 C-110.6875 121.0175 -110.6875 63.5975 -110.6875 4.4375 C-91.5475 4.4375 -72.4075 4.4375 -52.6875 4.4375 C-52.1925 15.8225 -52.1925 15.8225 -51.6875 27.4375 C-49.7075 24.7975 -47.7275 22.1575 -45.6875 19.4375 C-33.83099342 5.28228296 -17.90315955 0.14807881 0 0 Z " fill="#FDFEFE" transform="translate(323.6875,207.5625)"/>
<path d="M0 0 C0.33 0 0.66 0 1 0 C1.14248169 1.19822388 1.14248169 1.19822388 1.2878418 2.4206543 C3.27564275 18.86690535 5.54535068 35.00582059 10 51 C10.18643066 51.68594238 10.37286133 52.37188477 10.56494141 53.07861328 C24.52725492 103.69355389 56.75784583 152.72025807 99.30517578 183.75390625 C101.06720577 185.04941202 102.79780385 186.38024064 104.52734375 187.71875 C114.15495962 195.0880522 124.36210308 201.20416453 135 207 C135.6604834 207.3619043 136.3209668 207.72380859 137.00146484 208.09667969 C155.65997297 218.19672682 175.57946402 225.60095761 196.23364258 230.35766602 C198.16794551 230.80680122 200.09722652 231.27787423 202.0222168 231.76538086 C210.40918664 233.83887428 218.71782458 234.89193824 227.3125 235.6875 C228.65046684 235.81757785 229.98835826 235.94843374 231.32617188 236.08007812 C234.55012897 236.39432665 237.77461428 236.70083658 241 237 C241 237.33 241 237.66 241 238 C161.47 238 81.94 238 0 238 C0 159.46 0 80.92 0 0 Z " fill="#FEFEFE" transform="translate(0,274)"/>
<path d="M0 0 C0.33 0 0.66 0 1 0 C1 77.88 1 155.76 1 236 C-76.88 236 -154.76 236 -235 236 C-235 235.67 -235 235.34 -235 235 C-234.26177002 234.90501221 -233.52354004 234.81002441 -232.76293945 234.7121582 C-216.93356309 232.64468288 -201.402812 230.24245368 -186 226 C-185.30052246 225.80825195 -184.60104492 225.61650391 -183.88037109 225.41894531 C-166.55831469 220.56526083 -149.80736686 213.55843748 -134 205 C-133.25927246 204.59942383 -132.51854492 204.19884766 -131.75537109 203.78613281 C-112.44439245 193.22500014 -94.06992036 180.48494083 -78.703125 164.62109375 C-76 162 -76 162 -74 162 C-73.75121094 161.41992188 -73.50242187 160.83984375 -73.24609375 160.2421875 C-71.82082932 157.67760512 -70.21026176 156.12129212 -68.0625 154.125 C-62.60229404 148.77836632 -58.00503273 142.92779583 -53.40283203 136.84716797 C-52.04162692 135.05481192 -50.66074846 133.27915099 -49.27734375 131.50390625 C-20.21187595 93.66385888 -4.65851433 47.09150359 0 0 Z " fill="#FEFEFE" transform="translate(511,276)"/>
<path d="M0 0 C77.88 0 155.76 0 236 0 C236 78.87 236 157.74 236 239 C235.67 239 235.34 239 235 239 C234.92652344 238.03235718 234.92652344 238.03235718 234.8515625 237.04516602 C232.0700975 202.7773973 223.51148135 169.30245828 207.04492188 138.92919922 C205.91254205 136.83852974 204.80871634 134.73385282 203.703125 132.62890625 C192.90359534 112.35992406 178.92601217 93.09323037 162.1796875 77.28125 C161 76 161 76 161 74 C160.41992188 73.75121094 159.83984375 73.50242187 159.2421875 73.24609375 C156.67760512 71.82082932 155.12129212 70.21026176 153.125 68.0625 C147.23202126 62.05434904 140.72554111 57.03014075 134 52 C133.36594238 51.52159668 132.73188477 51.04319336 132.07861328 50.55029297 C113.86180567 36.90479546 94.1325293 26.36486861 73 18 C72.2879541 17.71044434 71.5759082 17.42088867 70.84228516 17.12255859 C48.24088933 7.9382076 24.14908037 3.79461056 0 1 C0 0.67 0 0.34 0 0 Z " fill="#FEFEFE" transform="translate(276,0)"/>
<path d="M0 0 C80.52 0 161.04 0 244 0 C244 0.33 244 0.66 244 1 C243.00484375 1.03738281 242.0096875 1.07476562 240.984375 1.11328125 C213.24357741 2.33362014 185.64330266 8.27863632 160 19 C159.19691406 19.33225586 158.39382812 19.66451172 157.56640625 20.00683594 C140.3925637 27.19386131 124.18396041 36.21347228 109 47 C108.40155273 47.4232959 107.80310547 47.8465918 107.18652344 48.28271484 C96.68474551 55.76477009 87.21663952 63.9963912 78 73 C77.07477539 73.89452881 77.07477539 73.89452881 76.13085938 74.80712891 C68.55495218 82.14306627 61.38567772 89.58251573 55 98 C54.53303711 98.6069873 54.06607422 99.21397461 53.58496094 99.83935547 C38.21513712 119.93194263 26.5149832 141.60041671 17 165 C16.72365723 165.6604834 16.44731445 166.3209668 16.16259766 167.00146484 C14.52886949 170.93258791 13.18810073 174.91607711 12 179 C11.7323584 179.9192627 11.4647168 180.83852539 11.18896484 181.78564453 C5.81413804 200.71616532 3.00555372 219.47596318 1 239 C0.67 239 0.34 239 0 239 C0 160.13 0 81.26 0 0 Z " fill="#FEFEFE" transform="translate(0,0)"/>
<path d="M0 0 C19.14 0 38.28 0 58 0 C58 57.42 58 114.84 58 174 C38.86 174 19.72 174 0 174 C0 116.58 0 59.16 0 0 Z " fill="#FEFEFE" transform="translate(123,212)"/>
<path d="M0 0 C8.4610498 4.37312686 13.24464722 9.73332839 16.74609375 18.5703125 C18.59298159 28.47634726 17.64593859 36.68962739 12.1484375 45.26171875 C6.9001508 52.03040048 -0.38555313 55.29889514 -8.56640625 57.2578125 C-19.65767212 58.2301355 -29.18438399 57.52947233 -38.31640625 50.6953125 C-44.26333528 45.00264647 -47.77568521 38.59249 -48.17773438 30.28051758 C-48.23774591 21.12768651 -46.70589184 13.37623272 -40.44140625 6.4453125 C-29.40393738 -3.66042198 -13.63790302 -5.79560218 0 0 Z " fill="#FCFDFE" transform="translate(167.56640625,130.7421875)"/>
</svg>
