<?xml version="1.0" encoding="UTF-8"?>
<svg version="1.1" xmlns="http://www.w3.org/2000/svg" width="447" height="447">
<path d="M0 0 C147.51 0 295.02 0 447 0 C447 147.51 447 295.02 447 447 C299.49 447 151.98 447 0 447 C0 299.49 0 151.98 0 0 Z " fill="#FC3018" transform="translate(0,0)"/>
<path d="M0 0 C72.27 0 144.54 0 219 0 C219 0.33 219 0.66 219 1 C217.91912109 1.02126953 217.91912109 1.02126953 216.81640625 1.04296875 C184.72219672 2.46852187 150.06161737 13.94256148 127.34765625 37.73046875 C126 39 126 39 124 39 C124 39.66 124 40.32 124 41 C122.3438362 42.34635694 120.67517339 43.67737017 119 45 C101.47534665 64.15559736 89.82684351 86.72200975 83.6875 111.8125 C83.52789795 112.45703125 83.3682959 113.1015625 83.20385742 113.765625 C74.70804845 151.07024836 82.88610725 189.53866144 102.86889648 221.54248047 C104.23774802 223.70035713 105.61658189 225.85143972 107 228 C107.73731797 229.15603398 108.47432104 230.3122689 109.2109375 231.46875 C110.63523549 233.69256099 112.06393574 235.91275383 113.5 238.12890625 C116.63028815 242.96509813 119.72043869 247.82681309 122.8125 252.6875 C123.4091748 253.62537354 124.00584961 254.56324707 124.62060547 255.52954102 C129.06995671 262.5278121 133.50696493 269.53382761 137.92602539 276.55126953 C140.03383783 279.89712928 142.14663491 283.2384234 144.30078125 286.5546875 C144.94402344 287.54726563 145.58726562 288.53984375 146.25 289.5625 C147.06210937 290.80193359 147.06210937 290.80193359 147.890625 292.06640625 C149 294 149 294 149 296 C147.37551591 296.30459077 145.75101846 296.60911039 144.12646484 296.91333008 C142.68386117 297.18412882 141.24148497 297.45614158 139.79931641 297.72924805 C136.25271646 298.39926353 132.70670086 299.04997389 129.1484375 299.65625 C112.44710147 302.56083018 96.41207133 306.89298423 81 314 C79.27519488 314.67787101 77.5462841 315.34543564 75.8125 316 C59.18028932 322.6366313 39.59457667 334.52526132 31.91796875 351.375 C27.1709862 362.64698683 26.42771638 373.49606932 31 385 C41.95450166 404.80122657 64.88099957 418.41600515 86 425 C87.39305265 425.4706398 88.78487718 425.94492282 90.17578125 426.421875 C94.76977938 427.99217458 99.38000563 429.50808295 104 431 C105.11890625 431.36222656 106.2378125 431.72445313 107.390625 432.09765625 C118.10546112 435.35697216 129.11321992 437.33797551 140.1027832 439.43457031 C141.93037662 439.79124903 143.75506149 440.16351194 145.57495117 440.55761719 C151.97037388 441.9353867 158.29099308 442.55009955 164.8125 443 C167.00530999 443.16269819 169.19801721 443.32678675 171.390625 443.4921875 C172.48697266 443.57436523 173.58332031 443.65654297 174.71289062 443.74121094 C179.83505357 444.14447094 184.94865909 444.62838144 190.0625 445.125 C191.41855347 445.25648438 191.41855347 445.25648438 192.80200195 445.390625 C194.86815878 445.59214182 196.9341066 445.79580023 199 446 C199 446.33 199 446.66 199 447 C133.33 447 67.66 447 0 447 C0 299.49 0 151.98 0 0 Z " fill="#FEFEFE" transform="translate(0,0)"/>
<path d="M0 0 C69.63 0 139.26 0 211 0 C211 147.51 211 295.02 211 447 C145.99 447 80.98 447 14 447 C14 446.67 14 446.34 14 446 C14.84481934 445.91959473 15.68963867 445.83918945 16.56005859 445.75634766 C24.64154024 444.98548345 24.64154024 444.98548345 32.72143555 444.19824219 C33.43582291 444.12790771 34.15021027 444.05757324 34.88624573 443.98510742 C36.31760348 443.84411719 37.74894913 443.70300413 39.18028259 443.56176758 C42.74199065 443.21253787 46.30347998 442.88390886 49.87109375 442.6015625 C70.44141718 440.76674673 92.12462846 436.49828058 111.4765625 429.26171875 C114.68146245 428.11406611 117.8141948 427.26401944 121.11572266 426.47192383 C141.91210103 421.26339838 165.89701964 406.82709928 177.9375 389 C183.24160636 379.57674721 184.46961162 369.44048651 182.37890625 358.85546875 C179.5467157 349.04979569 173.40956469 341.83959817 166 335 C165.51402344 334.54367187 165.02804687 334.08734375 164.52734375 333.6171875 C146.12221455 316.99600699 119.70382575 308.25111573 96.01831055 302.51269531 C94.24956689 302.06339549 92.50107408 301.53587474 90.7578125 300.99609375 C85.25864379 299.53841389 79.68150137 298.73749595 74.0625 297.875 C72.90169922 297.69324219 71.74089844 297.51148438 70.54492188 297.32421875 C67.69720041 296.87889605 64.84891529 296.43760868 62 296 C63.14495782 292.98595327 64.33012194 290.25552267 66.109375 287.56640625 C66.52695068 286.92912598 66.94452637 286.2918457 67.37475586 285.63525391 C68.05550171 284.60924072 68.05550171 284.60924072 68.75 283.5625 C69.74693892 282.040918 70.74298882 280.51875326 71.73828125 278.99609375 C72.26760254 278.18769043 72.79692383 277.37928711 73.34228516 276.54638672 C76.24084951 272.09395282 79.08849825 267.60924855 81.9375 263.125 C82.82091064 261.73607544 82.82091064 261.73607544 83.72216797 260.3190918 C86.58315624 255.81748474 89.43652592 251.31123968 92.27734375 246.796875 C92.79546631 245.97364746 93.31358887 245.15041992 93.84741211 244.30224609 C94.85503335 242.70119601 95.86236402 241.09996301 96.86938477 239.49853516 C99.63495942 235.11460105 102.46430784 230.7888608 105.375 226.5 C110.32351536 219.13882674 114.53608376 211.46724315 118.00561523 203.30273438 C118.63127069 201.85388039 119.27557312 200.41279814 119.94604492 198.98413086 C125.78517659 186.47715379 129.93563187 171.83914863 130 158 C130.01224609 157.18982422 130.02449219 156.37964844 130.03710938 155.54492188 C130.12461067 149.61566715 130.115553 143.6929345 130.03271484 137.76367188 C130.01266328 136.06976359 130.00276144 134.37565102 130.01025391 132.68164062 C130.15918292 98.91394598 111.62489321 66.54312783 89.34375 42.33984375 C78.39756263 31.41190002 65.40421598 23.48106416 52 16 C51.39712158 15.64607178 50.79424316 15.29214355 50.1730957 14.92749023 C47.03073223 13.08486322 44.05395969 11.48691794 40.5625 10.4375 C37.7605833 9.58150647 35.10065134 8.63851611 32.375 7.54296875 C27.50723232 5.70201591 22.5478551 4.78691204 17.4375 3.875 C16.53064453 3.70613281 15.62378906 3.53726562 14.68945312 3.36328125 C9.80522388 2.46364802 4.92201629 1.66167023 0 1 C0 0.67 0 0.34 0 0 Z " fill="#FEFEFE" transform="translate(236,0)"/>
<path d="M0 0 C3.70778171 0.75427912 4.07653154 1.29721044 6.22265625 4.25 C7.25695436 5.90904193 8.2643943 7.58501394 9.25 9.2734375 C10.38011935 11.11073182 11.51033102 12.94796936 12.640625 14.78515625 C13.50977539 16.22834229 13.50977539 16.22834229 14.39648438 17.70068359 C16.76393308 21.59716338 19.22474867 25.43012298 21.68896484 29.26586914 C26.70344139 37.07420274 31.62820041 44.93439241 36.46875 52.8515625 C41.14243738 60.45692651 46.01250484 67.94056527 50.84472656 75.44580078 C53.76595553 79.98480685 56.65941463 84.54099425 59.546875 89.1015625 C61.67347618 92.40285767 63.88531107 95.64292712 66.12109375 98.87109375 C67.1875 100.6484375 67.1875 100.6484375 67.1875 102.6484375 C71.64946929 104.95138939 76.26179524 105.43283911 81.1875 104.6484375 C85.12783984 102.66192007 87.12848696 100.74591366 89.39453125 96.984375 C89.97275635 96.03997559 90.55098145 95.09557617 91.14672852 94.12255859 C92.0640979 92.58849365 92.0640979 92.58849365 93 91.0234375 C94.33714395 88.83508284 95.67573179 86.64760991 97.015625 84.4609375 C97.53002892 83.6168483 97.53002892 83.6168483 98.05482483 82.75570679 C101.69603891 76.78658532 105.46694912 70.90326887 109.25 65.0234375 C110.58229739 62.9480875 111.9143298 60.87256735 113.24609375 58.796875 C113.89819824 57.78077148 114.55030273 56.76466797 115.22216797 55.71777344 C118.99851854 49.82009898 122.74931888 43.9060919 126.49633789 37.98974609 C129.06283319 33.94658893 131.658194 29.93144258 134.3359375 25.9609375 C137.19854581 21.68882868 139.74174178 17.31596322 142.19287109 12.79345703 C143.22403051 10.91407801 144.29526598 9.06274993 145.375 7.2109375 C145.71080078 6.57478516 146.04660156 5.93863281 146.39257812 5.28320312 C147.48046875 3.46484375 147.48046875 3.46484375 150.1875 0.6484375 C153.27437176 -0.08724767 156.06538634 0.22414787 159.1875 0.6484375 C159.98567139 0.75406006 160.78384277 0.85968262 161.60620117 0.96850586 C164.14921196 1.36104097 166.6641146 1.83277369 169.1875 2.3359375 C170.55455078 2.60277344 170.55455078 2.60277344 171.94921875 2.875 C179.89268743 4.48141975 187.60556004 6.6175267 195.32519531 9.06787109 C197.02838323 9.59883345 198.74424002 10.08870884 200.4609375 10.57421875 C226.25652808 17.94902865 254.48036375 31.28414605 269.1875 54.6484375 C273.9482178 64.1577284 274.70167369 74.54534697 272.125 84.8359375 C266.22305716 101.69863132 250.96086803 112.16433658 236.1875 120.6484375 C235.19363281 121.23625 234.19976562 121.8240625 233.17578125 122.4296875 C217.58096799 131.35401859 199.63818861 136.01874727 182.25683594 140.15576172 C180.0994161 140.66940887 177.94425298 141.19192798 175.7890625 141.71484375 C174.31785061 142.06830108 172.84649983 142.42118085 171.375 142.7734375 C170.38995483 143.01139038 170.38995483 143.01139038 169.38500977 143.25415039 C139.05936797 150.41682835 106.98878319 152.1548657 75.9375 152.0859375 C74.89319824 152.08579651 73.84889648 152.08565552 72.77294922 152.08551025 C59.53916085 152.05596588 46.53208081 151.2701857 33.3770752 149.8677063 C30.48404014 149.57799151 27.59019297 149.3897499 24.6875 149.2265625 C8.47953345 148.28958644 -7.01239907 145.30109571 -22.8125 141.6484375 C-23.64136719 141.45991211 -24.47023438 141.27138672 -25.32421875 141.07714844 C-59.34405003 133.27457493 -93.80787476 121.32127116 -115.5 92.3984375 C-120.40979553 82.11124687 -121.28894613 71.48031177 -117.8125 60.6484375 C-110.36090505 41.11148267 -91.03641341 28.82343768 -73.0390625 20.0859375 C-62.59515561 15.43296203 -51.77510446 11.86161467 -40.8125 8.6484375 C-39.27335937 8.15730469 -39.27335937 8.15730469 -37.703125 7.65625 C-30.17320982 5.3324245 -22.63027061 3.76780579 -14.875 2.3984375 C-13.89160645 2.223125 -12.90821289 2.0478125 -11.89501953 1.8671875 C-7.93600159 1.19664869 -3.95891014 0.67333922 0 0 Z " fill="#61DD56" transform="translate(146.8125,295.3515625)"/>
<path d="M0 0 C13.88472137 0 13.88472137 0 20.9375 1.3125 C21.7018335 1.44857666 22.46616699 1.58465332 23.25366211 1.72485352 C42.02001153 5.13316674 42.02001153 5.13316674 49.90234375 9.03515625 C52.06740038 10.08465335 52.06740038 10.08465335 54.73828125 10.859375 C58.79529772 12.27811609 62.46496152 14.16559942 66.25 16.1875 C67.00216797 16.5882373 67.75433594 16.98897461 68.52929688 17.40185547 C74.3332125 20.54251868 79.75278323 23.98962718 85 28 C85.7425 28.55171875 86.485 29.1034375 87.25 29.671875 C97.08799192 37.11868832 105.51625491 45.17518593 113 55 C113.40750488 55.52722656 113.81500977 56.05445313 114.23486328 56.59765625 C120.67746945 64.98618232 125.71271632 73.64454324 130.16552734 83.23095703 C130.87364192 84.73212679 131.62918289 86.21078052 132.39453125 87.68359375 C139.31740899 101.41946228 142.92336342 117.32910045 142.98974609 132.66699219 C143.00137482 135.3128052 143.0583763 137.95630451 143.11328125 140.6015625 C143.44019327 161.2429919 141.78998563 182.52405139 131.96679688 201.12963867 C131.04397496 202.91492622 130.24848991 204.76433206 129.4609375 206.61328125 C124.51790025 218.07214032 117.1762541 228.46639832 110.35546875 238.86328125 C107.20594942 243.6684446 104.12152873 248.51185002 101.0625 253.375 C96.18823738 261.11932132 91.28895334 268.84718142 86.37158203 276.56420898 C83.29979116 281.38506076 80.23291531 286.20889951 77.17578125 291.0390625 C76.54978027 292.02672607 75.9237793 293.01438965 75.27880859 294.03198242 C74.0861479 295.91395735 72.89497107 297.79687378 71.70556641 299.6809082 C69.35914865 303.38001179 67.00895341 307.03896145 64.41015625 310.56640625 C62.10283508 313.73701086 60.26651151 317.0755186 58.39794922 320.51806641 C55.66448159 325.37109328 52.58538434 330.0114872 49.5625 334.6875 C48.49131718 336.35270685 47.42013959 338.01791713 46.34942627 339.6834259 C45.6238092 340.81188647 44.89785654 341.94013132 44.17156982 343.06816101 C40.72017189 348.42909911 37.2949498 353.80646692 33.875 359.1875 C33.31248535 360.07147461 32.7499707 360.95544922 32.17041016 361.86621094 C29.1718111 366.57915363 26.17894488 371.29566303 23.19140625 376.015625 C22.56314941 377.00667236 21.93489258 377.99771973 21.28759766 379.01879883 C20.09159629 380.90560225 18.89715182 382.79339386 17.70458984 384.68237305 C16.15109038 387.13151956 14.58308778 389.56988993 13 392 C12.5477002 392.69625488 12.09540039 393.39250977 11.62939453 394.10986328 C7.68300576 399.94149834 7.68300576 399.94149834 4 401 C1.640625 401.1953125 1.640625 401.1953125 -0.75 401.125 C-1.54921875 401.10695313 -2.3484375 401.08890625 -3.171875 401.0703125 C-4.07679688 401.03550781 -4.07679688 401.03550781 -5 401 C-5 400.67 -5 400.34 -5 400 C-3.35 400 -1.7 400 0 400 C-0.33 337.3 -0.66 274.6 -1 210 C8.9 208.02 8.9 208.02 19 206 C28.48477204 202.57926254 35.60371515 198.79873939 43 192 C43.64582031 191.4225 44.29164063 190.845 44.95703125 190.25 C56.89288168 179.01625842 63.37057052 163.85834502 64.1640625 147.6484375 C64.5929116 128.81806342 59.42309737 112.85147969 46.41333008 99.15161133 C33.00555819 85.81674491 18.50390004 81.70078001 0 78 C0 52.26 0 26.52 0 0 Z " fill="#E51E14" transform="translate(224,0)"/>
<path d="M0 0 C1.61248411 0.12383266 3.22171676 0.29784786 4.82421875 0.515625 C6.02147583 0.67405884 6.02147583 0.67405884 7.24291992 0.83569336 C9.78593071 1.22822847 12.30083335 1.69996119 14.82421875 2.203125 C15.73558594 2.38101562 16.64695312 2.55890625 17.5859375 2.7421875 C25.52940618 4.34860725 33.24227879 6.4847142 40.96191406 8.93505859 C42.66510198 9.46602095 44.38095877 9.95589634 46.09765625 10.44140625 C71.89324683 17.81621615 100.1170825 31.15133355 114.82421875 54.515625 C119.58493655 64.0249159 120.33839244 74.41253447 117.76171875 84.703125 C111.85977591 101.56581882 96.59758678 112.03152408 81.82421875 120.515625 C80.33341797 121.39734375 80.33341797 121.39734375 78.8125 122.296875 C63.21768674 131.22120609 45.27490736 135.88593477 27.89355469 140.02294922 C25.73613485 140.53659637 23.58097173 141.05911548 21.42578125 141.58203125 C19.95456936 141.93548858 18.48321858 142.28836835 17.01171875 142.640625 C16.02667358 142.87857788 16.02667358 142.87857788 15.02172852 143.12133789 C5.7469424 145.31196939 -3.58174713 146.79844586 -13.0546875 147.8046875 C-14.55944641 147.96725288 -14.55944641 147.96725288 -16.09460449 148.13310242 C-19.30847039 148.47597421 -22.52316384 148.80970514 -25.73828125 149.140625 C-26.82905975 149.25401215 -27.91983826 149.36739929 -29.04367065 149.48422241 C-45.22695204 151.14737294 -60.90018472 152.02743621 -77.17578125 151.515625 C-77.17578125 136.665625 -77.17578125 121.815625 -77.17578125 106.515625 C-74.20578125 104.865625 -71.23578125 103.215625 -68.17578125 101.515625 C-65.97846144 99.245914 -65.97846144 99.245914 -64.578125 96.65625 C-63.73012329 95.24931885 -63.73012329 95.24931885 -62.86499023 93.81396484 C-62.28692627 92.8080127 -61.7088623 91.80206055 -61.11328125 90.765625 C-59.81292008 88.59532138 -58.51077898 86.42608343 -57.20703125 84.2578125 C-56.54445312 83.14245117 -55.881875 82.02708984 -55.19921875 80.87792969 C-51.94891864 75.4769725 -48.53086846 70.18670413 -45.11328125 64.890625 C-43.78067156 62.81547551 -42.44863745 60.73995629 -41.1171875 58.6640625 C-40.46508301 57.64795898 -39.81297852 56.63185547 -39.14111328 55.58496094 C-35.36476271 49.68728648 -31.61396237 43.7732794 -27.86694336 37.85693359 C-25.30044806 33.81377643 -22.70508725 29.79863008 -20.02734375 25.828125 C-17.16473544 21.55601618 -14.62153947 17.18315072 -12.17041016 12.66064453 C-11.13925074 10.78126551 -10.06801527 8.92993743 -8.98828125 7.078125 C-8.48458008 6.12389648 -8.48458008 6.12389648 -7.97070312 5.15039062 C-5.78943343 1.50449818 -4.15706745 0.09279577 0 0 Z " fill="#13C27B" transform="translate(301.17578125,295.484375)"/>
<path d="M0 0 C16.07208469 10.50712537 29.29278119 25.0563307 33.375 44.375 C36.06526082 62.93508225 33.10856015 79.23874774 23 95 C12.2408427 109.13599506 -2.12991491 120.06198559 -20 123 C-24.10788492 123.32166731 -28.1933704 123.37006395 -32.3125 123.375 C-33.37662109 123.39949219 -34.44074219 123.42398438 -35.53710938 123.44921875 C-43.12906191 123.47701113 -49.05537505 121.9911306 -56 119 C-56.82113281 118.67829834 -57.64226562 118.35659668 -58.48828125 118.02514648 C-64.46765723 115.68108353 -69.11157842 112.10354412 -74 108 C-74.98484375 107.22785156 -75.9696875 106.45570313 -76.984375 105.66015625 C-88.75642268 95.81819631 -94.93359716 79.76917382 -97 65 C-98.4556258 47.25332926 -93.99352156 31.1741259 -83.4375 16.8125 C-75.59750486 7.60506385 -65.43546278 -0.00466638 -54 -4 C-52.88753906 -4.38929687 -51.77507812 -4.77859375 -50.62890625 -5.1796875 C-34.02239522 -10.4544829 -15.35898465 -8.40987882 0 0 Z " fill="#FEFDFD" transform="translate(255,86)"/>
</svg>
