<?xml version="1.0" encoding="UTF-8"?>
<svg version="1.1" xmlns="http://www.w3.org/2000/svg" width="400" height="400">
<path d="M0 0 C132 0 264 0 400 0 C400 132 400 264 400 400 C268 400 136 400 0 400 C0 268 0 136 0 0 Z " fill="#FDFEFE" transform="translate(0,0)"/>
<path d="M0 0 C0 0.66 0 1.32 0 2 C1.3303125 2.0928125 1.3303125 2.0928125 2.6875 2.1875 C16.8075584 4.27726864 32.31989426 12.9823003 44 21 C44.7734375 21.52078125 45.546875 22.0415625 46.34375 22.578125 C52.46484964 26.77221179 58.25844132 31.30415476 64 36 C64.64710938 36.51046875 65.29421875 37.0209375 65.9609375 37.546875 C67.34537158 38.65182239 68.67994086 39.81889445 70 41 C70 41.66 70 42.32 70 43 C70.89912109 43.39251953 70.89912109 43.39251953 71.81640625 43.79296875 C74.13061764 45.07220188 75.29659445 46.26250442 76.9375 48.3125 C78.66673603 50.45598199 80.40509671 52.39776765 82.375 54.33203125 C85.17898995 57.18191985 87.64214517 60.2027266 90.0625 63.375 C90.48337891 63.91382812 90.90425781 64.45265625 91.33789062 65.0078125 C99 74.98637355 99 74.98637355 99 79 C99.66 79 100.32 79 101 79 C105.04699026 86.19001363 108.65834473 93.45985479 112 101 C112.4228125 101.9075 112.845625 102.815 113.28125 103.75 C114.55588619 106.4858045 115.78902275 109.23546641 117 112 C117.350625 112.79148437 117.70125 113.58296875 118.0625 114.3984375 C125.22691451 132.14155781 126.19825133 151.96310044 126.24023438 170.85546875 C126.24987621 173.46647803 126.28094926 176.0766766 126.3125 178.6875 C126.42021103 195.26715748 123.97623971 210.34431264 118.8125 226.125 C118.44447266 227.28386719 118.07644531 228.44273437 117.69726562 229.63671875 C116.80907141 232.4281863 115.91011632 235.21561997 115 238 C114.34 238 113.68 238 113 238 C112.896875 238.845625 112.79375 239.69125 112.6875 240.5625 C111.9171146 244.41442701 110.63725486 247.44075031 109 251 C108.34 251 107.68 251 107 251 C106.6596875 252.0828125 106.6596875 252.0828125 106.3125 253.1875 C103.80480967 258.56112214 99.19851571 262.30077069 94 265 C90.93276432 265.47350122 88.04543858 265.64389273 85 265 C83.2578125 263.68359375 83.2578125 263.68359375 82 262 C80.38916642 249.5735695 87.32756571 237.62784739 93 227 C93.66 227 94.32 227 95 227 C95.12117188 226.41992188 95.24234375 225.83984375 95.3671875 225.2421875 C96.33735474 220.71971558 97.43397783 216.36249034 99 212 C99.66 212 100.32 212 101 212 C101.72297126 208.00827568 102.37361907 204.00799149 103 200 C103.19078125 198.78957031 103.3815625 197.57914063 103.578125 196.33203125 C106.48712619 175.28332978 107.87496881 150.78569077 99 131 C98.3231944 128.88466081 97.67647585 126.75942249 97.0625 124.625 C94.11323458 114.86460084 89.59447085 106.07867439 85 97 C84.25943359 95.42798828 84.25943359 95.42798828 83.50390625 93.82421875 C82.15228951 91.28598784 81.03450835 89.937627 79 88 C78.08956789 86.52123755 77.21792734 85.01825509 76.375 83.5 C68.12648092 69.57810926 55.52164144 55.98257452 42 47 C40.96101563 46.2678125 39.92203125 45.535625 38.8515625 44.78125 C25.0369806 35.15680135 10.5774751 26.62378738 -6 23 C-6 22.34 -6 21.68 -6 21 C-7.093125 20.87625 -8.18625 20.7525 -9.3125 20.625 C-13.51673891 20.10687196 -17.64879817 19.33430743 -21.80078125 18.5 C-57.26852702 12.95681141 -95.66938493 16.78432018 -127 35 C-127.58555664 35.33531738 -128.17111328 35.67063477 -128.77441406 36.01611328 C-135.95807951 40.16451112 -142.58561014 44.75595496 -149 50 C-149.83789062 50.64195313 -150.67578125 51.28390625 -151.5390625 51.9453125 C-164.1625906 61.80403329 -174.16516439 73.72223506 -183 87 C-183.70511719 88.05058594 -184.41023438 89.10117188 -185.13671875 90.18359375 C-188.90526385 95.72361228 -188.90526385 95.72361228 -191 102 C-191.66 102 -192.32 102 -193 102 C-193.11859375 102.71671875 -193.2371875 103.4334375 -193.359375 104.171875 C-194.02195745 107.09693409 -195.01723705 109.519196 -196.25 112.25 C-198.35247544 117.20236266 -200.09386852 122.16233047 -201.625 127.3125 C-201.91552246 128.26914551 -201.91552246 128.26914551 -202.21191406 129.24511719 C-202.86079634 131.48601183 -203.43953132 133.73525781 -204 136 C-204.26474121 137.05848145 -204.52948242 138.11696289 -204.80224609 139.20751953 C-206.97622616 148.80528674 -207.46592146 157.94294405 -207.39111328 167.75048828 C-207.37510337 170.2339647 -207.391019 172.71579278 -207.41015625 175.19921875 C-207.42766492 188.58839695 -206.55006118 202.30256215 -202 215 C-201.43359916 217.14480699 -200.87132379 219.29070636 -200.3125 221.4375 C-197.24095501 232.29105637 -192.04539465 242.16687908 -186.84765625 252.14453125 C-186 254 -186 254 -186 256 C-185.34 256 -184.68 256 -184 256 C-182.7734375 257.6171875 -182.7734375 257.6171875 -181.375 259.875 C-177.93239644 265.2198735 -174.02796806 270.08907444 -170 275 C-169.55785156 275.5671875 -169.11570313 276.134375 -168.66015625 276.71875 C-154.8632 294.1856037 -128.04931693 312.08834074 -106.35009766 317.33203125 C-104.03369292 317.99042346 -102.04989899 318.85651241 -99.88671875 319.90625 C-94.82815915 322.20015108 -89.71891624 323.4821986 -84.3125 324.6875 C-83.40177734 324.89955078 -82.49105469 325.11160156 -81.55273438 325.33007812 C-74.36541297 326.98467572 -67.54575848 328.15620446 -60.14453125 328.16796875 C-59.40224777 328.17129715 -58.65996429 328.17462555 -57.89518738 328.17805481 C-56.32946385 328.18309622 -54.76372968 328.185464 -53.19799805 328.18530273 C-50.83689016 328.18747753 -48.4762591 328.20563047 -46.11523438 328.22460938 C-35.56375601 328.26371237 -26.06128203 327.42511729 -16 324 C-13.39610339 323.48165044 -10.78942871 323.00669093 -8.171875 322.5625 C-5.80805544 322.14621233 -5.80805544 322.14621233 -4 320 C-2.05151367 319.24145508 -2.05151367 319.24145508 0.33203125 318.51953125 C1.64397461 318.10985107 1.64397461 318.10985107 2.98242188 317.69189453 C3.91634766 317.40169434 4.85027344 317.11149414 5.8125 316.8125 C18.81562081 312.60780593 37.09561051 305.85658423 45 294 C45.66 294 46.32 294 47 294 C47.93021589 287.65884417 47.93021589 287.65884417 45.5 282 C42.19652246 279.3159245 39.09048277 277.62483278 34.8125 277.25 C29.73512503 278.24882786 28.9203325 279.87717765 26 284 C25.34 284 24.68 284 24 284 C23.79117188 284.58394531 23.58234375 285.16789062 23.3671875 285.76953125 C21.48814983 288.83504699 19.24026391 289.93183171 16.125 291.6875 C15.07570313 292.28949219 14.02640625 292.89148438 12.9453125 293.51171875 C1.34006569 299.37590845 -16.05068897 296.72446058 -28 293 C-28 292.34 -28 291.68 -28 291 C-28.5986084 290.90928223 -29.1972168 290.81856445 -29.81396484 290.72509766 C-36.61756966 289.54879193 -42.4059364 287.32329682 -48.625 284.375 C-49.98818359 283.74464844 -49.98818359 283.74464844 -51.37890625 283.1015625 C-53.5905857 282.0772057 -55.79723331 281.0433483 -58 280 C-58 279.34 -58 278.68 -58 278 C-58.74121094 277.87882812 -59.48242188 277.75765625 -60.24609375 277.6328125 C-62.91381518 277.01980417 -64.71302084 276.24213431 -67.0625 274.875 C-67.83722656 274.42640625 -68.61195313 273.9778125 -69.41015625 273.515625 C-70.26480469 273.01546875 -71.11945313 272.5153125 -72 272 C-72.96808594 271.45859375 -73.93617188 270.9171875 -74.93359375 270.359375 C-80.48651916 267.21861209 -85.65934488 263.94194545 -90.61328125 259.921875 C-92.86619225 258.10774699 -95.17192214 256.38159501 -97.49462891 254.65844727 C-111.63187973 244.07138656 -125.30171482 231.55443896 -135.14453125 216.78125 C-136.79523816 214.10378108 -136.79523816 214.10378108 -138.4765625 212.54296875 C-140.87802333 210.11071996 -142.56402129 207.19246446 -144.375 204.3125 C-144.77638184 203.67892578 -145.17776367 203.04535156 -145.59130859 202.39257812 C-146.38197489 201.14365201 -147.1712496 199.89384359 -147.95898438 198.64306641 C-148.77737379 197.35137766 -149.61223644 196.07012476 -150.453125 194.79296875 C-153.20571634 190.58150401 -155.53201747 186.16868807 -157.8125 181.6875 C-158.12719238 181.07583984 -158.44188477 180.46417969 -158.76611328 179.83398438 C-160.17347821 177.01456068 -161 175.19639026 -161 172 C-161.66 172 -162.32 172 -163 172 C-164.53974824 167.91424767 -166.06921618 163.82482878 -167.58984375 159.73193359 C-168.10698731 158.34420073 -168.62677929 156.95745149 -169.14941406 155.57177734 C-174.72343058 140.78248064 -179.61316134 124.91388972 -174.03515625 109.26953125 C-168.18946517 96.45312931 -158.46452317 89.75009409 -145.6875 84.6875 C-143.00576924 84.00147585 -140.75519517 83.8379297 -138 84 C-138 83.34 -138 82.68 -138 82 C-122.43955109 80.79716775 -122.43955109 80.79716775 -117 84.625 C-111.57625281 89.71689268 -108.35792397 96.46731154 -105 103 C-104.5771875 103.7115625 -104.154375 104.423125 -103.71875 105.15625 C-97.68059244 115.58579487 -96.6773722 130.18711838 -98 142 C-99.61441718 146.17181197 -100.98046155 148.51356682 -104.9375 150.625 C-105.63746094 151.03492188 -106.33742188 151.44484375 -107.05859375 151.8671875 C-107.69925781 152.24101562 -108.33992188 152.61484375 -109 153 C-111.62942058 154.84059441 -112.79087934 155.8629064 -113.375 159.0390625 C-113.74442996 165.94278483 -111.07972009 169.56305089 -106.61499023 174.79467773 C-105.7057555 175.78347353 -104.79076243 176.76699495 -103.87109375 177.74609375 C-103.1035099 178.56997841 -103.1035099 178.56997841 -102.32041931 179.4105072 C-95.50865624 186.66396249 -88.4607104 193.68883461 -81.41577148 200.71459961 C-79.03836816 203.08657676 -76.6664439 205.46394104 -74.29492188 207.84179688 C-72.77115438 209.36490458 -71.24707725 210.88770261 -69.72265625 212.41015625 C-68.66945946 213.46638939 -68.66945946 213.46638939 -67.59498596 214.54396057 C-64.20125736 217.92152032 -60.79100824 221.06283399 -57 224 C-56.21625 224.804375 -55.4325 225.60875 -54.625 226.4375 C-50.48769429 230.47629843 -47.21179143 233.65679098 -41.375 234.5625 C-37.27385656 233.87897609 -35.85882977 233.0092945 -33 230 C-32.16321506 228.70284794 -31.35226534 227.38880434 -30.5625 226.0625 C-26.03831231 218.66054155 -26.03831231 218.66054155 -22 217 C-17.63329484 216.59876337 -13.37104729 216.7081645 -9 217 C-9 217.66 -9 218.32 -9 219 C-7.8759375 219.12246094 -6.751875 219.24492187 -5.59375 219.37109375 C-0.82185832 219.96758021 3.81731856 220.98334784 8.5 222.0625 C9.32242188 222.24876953 10.14484375 222.43503906 10.9921875 222.62695312 C12.9955717 223.08120885 14.9979003 223.54011599 17 224 C17 224.66 17 225.32 17 226 C17.70125 226.103125 18.4025 226.20625 19.125 226.3125 C22.39137647 227.09359003 25.0471852 228.42058743 28 230 C28 230.66 28 231.32 28 232 C28.60714844 232.25394531 29.21429688 232.50789062 29.83984375 232.76953125 C35.25480699 235.85400398 37.88187751 243.45253634 40 249 C40.20625 250.2375 40.4125 251.475 40.625 252.75 C41.60383994 256.04896032 41.60383994 256.04896032 43.80859375 256.89453125 C45.36550918 257.35593946 46.93010762 257.79191548 48.5 258.20703125 C52.890414 259.59961569 56.35215482 262.25118049 60 265 C60.72703125 265.53753906 61.4540625 266.07507813 62.203125 266.62890625 C68.10918315 271.34281563 71.16301257 276.11757335 72.4453125 283.59765625 C73.11483562 293.71327731 68.23687998 301.7232024 61.8125 309.1875 C48.46143735 323.07083092 32.36729868 331.24977225 15 339 C14.37472412 339.31606201 13.74944824 339.63212402 13.10522461 339.95776367 C6.5316276 343.1621504 -0.3747191 344.69962877 -7.48413086 346.23754883 C-9.56409007 346.68784424 -11.64050098 347.15227395 -13.71679688 347.61914062 C-24.38366315 349.99540847 -34.31517894 351.19555274 -45.25 351.1875 C-46.38719482 351.18669434 -47.52438965 351.18588867 -48.69604492 351.18505859 C-55.93716284 351.13335443 -63.10558792 350.83415472 -70.3125 350.125 C-71.12299805 350.04660889 -71.93349609 349.96821777 -72.76855469 349.88745117 C-76.8609551 349.43084295 -80.22061901 348.56691727 -84 347 C-86.96078435 346.30343279 -89.95026113 345.75818307 -92.9375 345.1875 C-101.31789807 343.50916867 -109.03513519 341.13166375 -117 338 C-118.62418232 337.3936386 -120.24903952 336.789077 -121.875 336.1875 C-122.90625 335.795625 -123.9375 335.40375 -125 335 C-125 334.34 -125 333.68 -125 333 C-125.556875 332.82984375 -126.11375 332.6596875 -126.6875 332.484375 C-127.450625 332.24203125 -128.21375 331.9996875 -129 331.75 C-129.7425 331.51796875 -130.485 331.2859375 -131.25 331.046875 C-149.93986074 323.93198483 -166.50500537 309.72078111 -180.5 295.8125 C-181.63078979 294.69004883 -181.63078979 294.69004883 -182.78442383 293.54492188 C-187.30361423 288.96663398 -191.25330027 284.22160668 -195 279 C-195.97545607 277.7263163 -196.95421012 276.45514575 -197.9375 275.1875 C-210 259.11477573 -210 259.11477573 -210 253 C-210.66 253 -211.32 253 -212 253 C-217.02377227 242.25946349 -221.45760068 231.55983265 -224.4375 220.0625 C-224.67162598 219.16587646 -224.90575195 218.26925293 -225.14697266 217.34545898 C-228.47190016 203.85067022 -229.32504898 190.81918835 -229.26074219 176.98828125 C-229.25007061 174.26799958 -229.26067093 171.54838611 -229.2734375 168.828125 C-229.28627663 154.56264268 -229.1789055 139.64703817 -224.5625 126 C-224.23536011 124.9627478 -224.23536011 124.9627478 -223.90161133 123.90454102 C-223.4743774 122.55165995 -223.04107586 121.20067402 -222.60058594 119.85205078 C-221.74953063 117.22761763 -220.96897498 114.58335102 -220.1875 111.9375 C-219.79217515 110.62484676 -219.39658386 109.31227342 -219 108 C-218.34 108 -217.68 108 -217 108 C-216.938125 107.21625 -216.87625 106.4325 -216.8125 105.625 C-215.6871807 100.60434465 -213.40722407 96.52320375 -211 92 C-210.37783106 90.79091725 -209.75680052 89.58124824 -209.13671875 88.37109375 C-205.24681368 80.84230704 -201.1341759 73.76684383 -196 67 C-195.62037109 66.48646973 -195.24074219 65.97293945 -194.84960938 65.44384766 C-184.04953814 50.86375149 -171.53607581 38.80876431 -157 28 C-156.04222656 27.27039062 -155.08445312 26.54078125 -154.09765625 25.7890625 C-137.49448635 13.35455075 -119.71214437 5.92314029 -99.73046875 0.80859375 C-96.80812067 -0.00888378 -96.80812067 -0.00888378 -93.3359375 -1.484375 C-65.55960428 -12.00969898 -27.98850342 -7.40577802 0 0 Z " fill="#2593D0" transform="translate(251,23)"/>
<path d="M0 0 C0 0.66 0 1.32 0 2 C1.2684375 2.38865234 1.2684375 2.38865234 2.5625 2.78515625 C14.20653727 6.90026487 24.06563059 13.83360972 33.45166016 21.70581055 C34.99044276 22.99201152 36.55579995 24.24619771 38.12109375 25.5 C40.92838384 27.93780958 43.18281328 30.41181879 45.5 33.3125 C46.26441406 34.26769531 47.02882813 35.22289062 47.81640625 36.20703125 C58 49.23255814 58 49.23255814 58 53 C58.66 53 59.32 53 60 53 C60.83986084 54.93467942 61.67168027 56.87285129 62.5 58.8125 C63.19609375 60.43091797 63.19609375 60.43091797 63.90625 62.08203125 C65 65 65 65 65 68 C65.66 68 66.32 68 67 68 C69.73321854 78.4570013 71.40272563 88.47593568 71.4375 99.3125 C71.44716797 100.28388916 71.45683594 101.25527832 71.46679688 102.25610352 C71.40388934 107.55097527 71.02995608 111.45876998 68 116 C64.06724782 117.96637609 59.28796683 117.46373567 55 117 C51.26142565 114.44682727 49.41660271 110.99839747 48.49755859 106.58984375 C48.38234863 105.71457031 48.26713867 104.83929688 48.1484375 103.9375 C48.01953125 102.97585937 47.890625 102.01421875 47.7578125 101.0234375 C47.63148438 100.02570313 47.50515625 99.02796875 47.375 98 C47.2409375 97.00226563 47.106875 96.00453125 46.96875 94.9765625 C46.43706343 90.92923415 46 87.09045764 46 83 C45.34 83 44.68 83 44 83 C43.35334337 80.75023648 42.70770477 78.50018033 42.0625 76.25 C41.70285156 74.99703125 41.34320313 73.7440625 40.97265625 72.453125 C40.27445851 69.97438281 39.60056274 67.50339838 39 65 C38.34 65 37.68 65 37 65 C36.77828125 64.42894531 36.5565625 63.85789062 36.328125 63.26953125 C28.66273109 45.80020962 11.68243892 32.92614872 -5.58007812 25.91552734 C-17.03573406 21.58151708 -28.77516555 18.57532218 -40.96875 17.421875 C-45.0928434 16.84790324 -48.02879226 16.10516743 -50.8125 12.9375 C-52.45138453 8.8834172 -52.71903634 5.31421807 -52 1 C-43.41776361 -13.20508093 -12.79724334 -3.3331695 0 0 Z " fill="#2DACE2" transform="translate(232,92)"/>
<path d="M0 0 C3.1414384 1.67477185 6.13686569 3.52274423 9.10375977 5.48828125 C9.70172363 5.88015625 10.2996875 6.27203125 10.91577148 6.67578125 C25.99504254 16.83444807 37.5015452 32.14988112 42.47875977 49.73828125 C43.29413708 54.19789594 43.30500643 58.71664844 43.35375977 63.23828125 C43.3632666 63.97208008 43.37277344 64.70587891 43.38256836 65.46191406 C43.3506479 70.63302827 43.06553838 74.52220049 39.32250977 78.2734375 C36.59181921 79.76858673 34.7070378 79.92151851 31.60375977 79.92578125 C30.66532227 79.94511719 29.72688477 79.96445313 28.76000977 79.984375 C25.28136456 79.33468685 24.34538496 78.20379118 22.10375977 75.48828125 C20.93115234 72.43554687 20.93115234 72.43554687 19.99829102 68.89453125 C19.82875412 68.26599243 19.65921722 67.63745361 19.48454285 66.98986816 C18.94897676 64.99248796 18.43242753 62.99075182 17.91625977 60.98828125 C17.55877618 59.64289897 17.20006396 58.29784252 16.84008789 56.953125 C15.55720275 52.14106417 14.30113967 47.32239604 13.10375977 42.48828125 C12.44375977 42.48828125 11.78375977 42.48828125 11.10375977 42.48828125 C10.06079102 40.94921875 10.06079102 40.94921875 8.91625977 38.86328125 C3.54916108 30.08776644 -5.24376308 24.75660959 -14.89624023 21.48828125 C-19.39705774 20.43993568 -23.940412 19.66807502 -28.52368164 19.08154297 C-34.66362872 18.18355109 -38.99134897 16.50603999 -42.89624023 11.48828125 C-44.04967723 7.70815365 -43.7448493 4.3333582 -42.89624023 0.48828125 C-34.39990375 -10.99325454 -11.26113939 -5.45151076 0 0 Z " fill="#2FADE2" transform="translate(216.896240234375,135.51171875)"/>
<path d="M0 0 C0.66 0.33 1.32 0.66 2 1 C-5.26 8.26 -12.52 15.52 -20 23 C-20.66 22.67 -21.32 22.34 -22 22 C-19.46415228 19.26537716 -16.92029561 16.53832884 -14.375 13.8125 C-13.30572266 12.65911133 -13.30572266 12.65911133 -12.21484375 11.48242188 C-8.33957989 7.34051142 -4.45859523 3.50920981 0 0 Z " fill="#DAEDF7" transform="translate(99,74)"/>
<path d="M0 0 C0 0.33 0 0.66 0 1 C-12.54 0.67 -25.08 0.34 -38 0 C-38 -0.33 -38 -0.66 -38 -1 C-33.97926162 -1.16901036 -29.95839611 -1.33478828 -25.9375 -1.5 C-24.80376953 -1.54769531 -23.67003906 -1.59539063 -22.50195312 -1.64453125 C-5.94575455 -2.32029446 -5.94575455 -2.32029446 0 0 Z " fill="#72BAE2" transform="translate(222,39)"/>
<path d="M0 0 C0.66 0.33 1.32 0.66 2 1 C-0.64 3.64 -3.28 6.28 -6 9 C-6.33 8.34 -6.66 7.68 -7 7 C-4.66666667 4.66666667 -2.33333333 2.33333333 0 0 Z " fill="#CAE5F4" transform="translate(144,173)"/>
</svg>
