<?xml version="1.0" encoding="UTF-8"?>
<svg version="1.1" xmlns="http://www.w3.org/2000/svg" width="512" height="512">
<path d="M0 0 C168.96 0 337.92 0 512 0 C512 168.96 512 337.92 512 512 C343.04 512 174.08 512 0 512 C0 343.04 0 174.08 0 0 Z " fill="#FEFEFE" transform="translate(0,0)"/>
<path d="M0 0 C7.41564985 -0.10240734 14.83111375 -0.17188319 22.24731445 -0.21972656 C24.76398533 -0.23969631 27.28061069 -0.26688171 29.79711914 -0.30175781 C51.07637462 -0.58902987 69.99950705 -0.13564009 86.1875 15.5 C112.69483702 42.50627876 118.61262431 92.95384986 118.35571289 128.81738281 C117.970433 144.39228722 115.91677414 160.18764655 111 175 C110.53932129 176.38856201 110.53932129 176.38856201 110.06933594 177.80517578 C93.73820789 226.28773567 93.73820789 226.28773567 72.125 237.8125 C60.33289973 243.034902 49.62529107 243.41958657 36.94262695 243.34057617 C35.02969883 243.33972873 33.11676973 243.34020732 31.20384216 243.34190369 C26.03928233 243.3427605 20.87493373 243.32518572 15.71042275 243.30418181 C10.30258027 243.2853625 4.89473236 243.28366044 -0.51313782 243.28010559 C-10.74094928 243.27080053 -20.96866395 243.24620762 -31.19643289 243.21605712 C-42.84578763 243.18246513 -54.49514712 243.16601505 -66.14453828 243.15097082 C-90.09641423 243.11965667 -114.04819759 243.06631821 -138 243 C-138 247.95 -138 252.9 -138 258 C-97.41 258 -56.82 258 -15 258 C-15 324.97841096 -15 324.97841096 -30.8359375 341.1015625 C-35.91917706 345.96002204 -41.85032183 349.63333045 -48 353 C-48.72396973 353.39638672 -49.44793945 353.79277344 -50.19384766 354.20117188 C-56.97656322 357.75526539 -63.98119446 360.2518244 -71.25 362.625 C-72.45293701 363.01961426 -73.65587402 363.41422852 -74.89526367 363.82080078 C-82.89736311 366.40660361 -90.68302958 368.68679414 -99 370 C-99.7007666 370.13100098 -100.4015332 370.26200195 -101.12353516 370.39697266 C-125.47540864 374.93715246 -152.751702 375.34930994 -177 370 C-178.4535791 369.69400879 -178.4535791 369.69400879 -179.93652344 369.38183594 C-206.79846894 363.65961685 -235.95226167 355.3400366 -253 332 C-259.39426674 321.11553707 -261.2998052 312.47431584 -261.29052734 300.00317383 C-261.29724457 298.70469513 -261.30396179 297.40621643 -261.31088257 296.06838989 C-261.32848164 292.52057212 -261.33323547 288.97285096 -261.33451414 285.42499375 C-261.33594019 283.20283597 -261.34021844 280.98070239 -261.34550858 278.75855064 C-261.36399137 270.98997832 -261.37218172 263.22147444 -261.37060547 255.45288086 C-261.36940576 248.23820742 -261.39047883 241.02383395 -261.4220928 233.80923635 C-261.44834602 227.59408293 -261.45896894 221.3790269 -261.45769465 215.16381854 C-261.4571875 211.46118938 -261.46273191 207.75882682 -261.48405075 204.05625343 C-261.50722583 199.91856417 -261.49785731 195.78153568 -261.48583984 191.64379883 C-261.49707886 190.43558975 -261.50831787 189.22738068 -261.51989746 187.9825592 C-261.4091963 172.90886253 -255.35950043 158.99048704 -245.06640625 147.9375 C-237.58254008 140.92049127 -229.55314843 135.69950356 -220 132 C-218.453125 131.38125 -218.453125 131.38125 -216.875 130.75 C-208.60536708 128.59270446 -200.0457737 128.85451708 -191.56420898 128.8581543 C-190.22925198 128.85511619 -188.894296 128.85159296 -187.55934143 128.84762573 C-184.69970526 128.83978422 -181.84008129 128.83460979 -178.98043633 128.83133507 C-174.4428167 128.82537548 -169.90527347 128.80878769 -165.36769104 128.78999329 C-163.80748276 128.78365704 -162.24727444 128.7773314 -160.68706608 128.77101612 C-159.90603555 128.76785031 -159.12500502 128.7646845 -158.3203069 128.76142275 C-147.7710872 128.71953292 -137.22190479 128.68640323 -126.67260742 128.67407227 C-119.53695263 128.66564632 -112.40148956 128.64299226 -105.26593071 128.6047166 C-101.50175369 128.58511244 -97.73786217 128.57249865 -93.97363091 128.57755089 C-67.41897318 128.76882509 -67.41897318 128.76882509 -42.5625 120.1875 C-41.89984131 119.84130615 -41.23718262 119.4951123 -40.55444336 119.13842773 C-35.23568167 116.28641372 -30.47570097 113.0656465 -26 109 C-25.26652344 108.35804688 -24.53304687 107.71609375 -23.77734375 107.0546875 C-11.07315197 95.24392945 -1.92450186 78.16749117 -0.78620911 60.72377014 C-0.67397922 56.85606922 -0.61839608 52.99005605 -0.5859375 49.12109375 C-0.5671929 47.69905007 -0.54761713 46.27701713 -0.5272522 44.85499573 C-0.47627212 41.14141212 -0.43646564 37.42779259 -0.39910889 33.71405029 C-0.35885322 29.91279463 -0.30786012 26.11168399 -0.2578125 22.31054688 C-0.16145822 14.87379798 -0.07692616 7.43697796 0 0 Z " fill="#FFD045" transform="translate(394,131)"/>
<path d="M0 0 C1.03680908 0.00060425 2.07361816 0.0012085 3.1418457 0.00183105 C18.13247729 0.0255376 32.99825187 0.14814693 47.875 2.1875 C48.84711426 2.31640625 49.81922852 2.4453125 50.82080078 2.578125 C73.2091216 5.66666231 95.99368503 12.55992588 110.35546875 31.3359375 C119.86209938 44.35688573 123.17804173 55.88722449 123.16552734 71.9206543 C123.17224457 73.16744461 123.17896179 74.41423492 123.18588257 75.69880676 C123.20155134 79.09587487 123.20823329 82.49269835 123.20951414 85.88978553 C123.21094295 88.01983972 123.21522631 90.14986884 123.22050858 92.27991676 C123.23897431 99.73309563 123.2471838 107.18620331 123.24560547 114.6394043 C123.24440596 121.55075332 123.26547957 128.46178911 123.2970928 135.37305897 C123.32338148 141.33605732 123.33396748 147.29895418 123.33269465 153.26200992 C123.33218857 156.81041785 123.3376725 160.35854719 123.35905075 163.90689659 C123.38230149 167.87384247 123.37283575 171.84037052 123.36083984 175.80737305 C123.37207886 176.95849579 123.38331787 178.10961853 123.39489746 179.29562378 C123.26037328 196.93629829 116.24903412 212.68418492 103.875 225.1875 C97.01367634 231.03798391 89.44185473 235.37356961 80.875 238.1875 C79.823125 238.579375 78.77125 238.97125 77.6875 239.375 C70.04515592 241.58278829 62.37724585 241.33266156 54.48266602 241.3293457 C53.12829984 241.33238174 51.77393468 241.33590442 50.41957092 241.33987427 C47.51188101 241.34773283 44.6042032 241.35289681 41.69650459 241.35616493 C37.08343446 241.36211137 32.47044003 241.37868818 27.85740662 241.39750671 C26.27274804 241.40384354 24.68808941 241.41016917 23.10343075 241.41648388 C21.91324095 241.4212326 21.91324095 241.4212326 20.69900692 241.42607725 C9.97000576 241.46799793 -0.75895952 241.5010869 -11.48803711 241.51342773 C-18.73867335 241.5218529 -25.98912089 241.54450734 -33.23966271 241.5827834 C-37.06646661 241.60239642 -40.89298942 241.61499847 -44.71984673 241.60994911 C-71.45314462 241.38286321 -71.45314462 241.38286321 -96.5 249.9375 C-97.4890332 250.45183594 -97.4890332 250.45183594 -98.49804688 250.9765625 C-104.26528053 254.07200231 -109.29358911 257.76671535 -114.125 262.1875 C-115.14787109 263.07308594 -115.14787109 263.07308594 -116.19140625 263.9765625 C-129.18312705 275.92589474 -136.96219571 293.30833123 -138.42562866 310.77578735 C-138.56283368 314.59868093 -138.61807328 318.412991 -138.63671875 322.23828125 C-138.65361666 323.63219223 -138.67177349 325.02608845 -138.69111633 326.41996765 C-138.73806922 330.04144673 -138.7682286 333.66286602 -138.79455566 337.2845459 C-138.82464183 340.99906227 -138.8710735 344.7133733 -138.91601562 348.42773438 C-139.00142375 355.68088642 -139.06904206 362.93405449 -139.125 370.1875 C-145.98934664 370.264315 -152.85358021 370.3164168 -159.71826172 370.35229492 C-162.04773094 370.36727077 -164.3771725 370.3876586 -166.70654297 370.41381836 C-188.96647031 370.65733108 -207.05936186 369.65493705 -223.921875 353.41796875 C-224.64890625 352.68191406 -225.3759375 351.94585937 -226.125 351.1875 C-227.06085938 350.28451172 -227.06085938 350.28451172 -228.015625 349.36328125 C-243.22130737 333.57539932 -248.2117704 309.35811514 -251.70166016 288.52929688 C-252.24486161 285.5244593 -252.92933507 282.56171708 -253.64916992 279.59472656 C-254.91907359 273.17027805 -255.2995838 266.84497117 -255.36328125 260.31640625 C-255.37302979 259.48509186 -255.38277832 258.65377747 -255.39282227 257.79727173 C-255.56605415 239.18762006 -255.22107614 221.42606415 -251.125 203.1875 C-250.93776367 202.29885254 -250.75052734 201.41020508 -250.55761719 200.49462891 C-245.64787823 177.37476144 -236.96738332 154.64146853 -216.38671875 141.03857422 C-208.62564782 136.20452388 -200.54929778 131.95900401 -191.6875 129.5625 C-190.82253906 129.32273438 -189.95757812 129.08296875 -189.06640625 128.8359375 C-182.83794562 127.46286384 -176.77162902 127.06274956 -170.40539551 127.06724548 C-169.30483393 127.06596385 -169.30483393 127.06596385 -168.18203878 127.06465632 C-165.74698463 127.06302174 -163.31200083 127.06848945 -160.87695312 127.07397461 C-159.12210085 127.07425694 -157.36724845 127.07409784 -155.61239624 127.0735321 C-150.86507707 127.07324594 -146.11778332 127.07911346 -141.37047005 127.08610606 C-136.4030279 127.09236968 -131.43558513 127.09294578 -126.46813965 127.09413147 C-117.06900275 127.09723592 -107.66987752 127.10543736 -98.27074575 127.11548096 C-87.56701698 127.12666962 -76.86328765 127.13215948 -66.15955448 127.13717639 C-44.14802964 127.14762072 -22.13651597 127.16540511 -0.125 127.1875 C-0.125 122.2375 -0.125 117.2875 -0.125 112.1875 C-40.715 112.1875 -81.305 112.1875 -123.125 112.1875 C-123.125 37.08580508 -123.125 37.08580508 -112.05078125 24.90625 C-107.2256775 20.3927149 -102.07350029 17.02150095 -96.125 14.1875 C-95.30128906 13.77886719 -94.47757813 13.37023438 -93.62890625 12.94921875 C-80.58377529 6.97251336 -66.06499805 4.41841274 -51.9375 2.4375 C-51.12104004 2.32196777 -50.30458008 2.20643555 -49.46337891 2.08740234 C-33.06939348 -0.01733882 -16.49950158 -0.01782374 0 0 Z " fill="#366D9C" transform="translate(256.125,3.8125)"/>
<path d="M0 0 C1.10056158 -0.00128164 1.10056158 -0.00128164 2.22335672 -0.00258917 C4.65841088 -0.00422374 7.09339467 0.00124396 9.52844238 0.00672913 C11.28329466 0.00701146 13.03814706 0.00685236 14.79299927 0.00628662 C19.54031843 0.00600046 24.28761218 0.01186798 29.03492546 0.01886058 C34.00236761 0.0251242 38.96981037 0.0257003 43.93725586 0.02688599 C53.33639276 0.02999044 62.73551799 0.03819187 72.13464975 0.04823548 C82.83837852 0.05942414 93.54210786 0.064914 104.24584103 0.06993091 C126.25736569 0.08037523 148.26887986 0.0979575 170.28039551 0.12025452 C170.28039551 0.45025452 170.28039551 0.78025452 170.28039551 1.12025452 C150.81039551 1.12025452 131.34039551 1.12025452 111.28039551 1.12025452 C111.29199707 6.59619202 111.30359863 12.07212952 111.31555176 17.71400452 C111.32068317 21.25957868 111.32549854 24.80514802 111.32922363 28.35072327 C111.33511775 33.93357843 111.34195383 39.51641666 111.35583496 45.09925842 C111.41161519 68.12831794 111.20376634 91.10782398 110.28039551 114.12025452 C109.05296631 114.22200989 107.82553711 114.32376526 106.56091309 114.42860413 C81.98208469 116.53233204 62.96544643 126.23312206 46.96789551 144.93275452 C31.86470093 164.87148333 31.6431531 186.5437157 31.54217529 210.42329407 C31.52236484 214.11799481 31.4804252 217.81244423 31.44055176 221.50697327 C31.36595724 228.71133165 31.31524254 235.91558229 31.28039551 243.12025452 C24.41604887 243.19706952 17.5518153 243.24917131 10.68713379 243.28504944 C8.35766457 243.30002529 6.02822301 243.32041311 3.69885254 243.34657288 C-18.5610748 243.59008559 -36.65396635 242.58769157 -53.51647949 226.35072327 C-54.60702637 225.24664124 -54.60702637 225.24664124 -55.71960449 224.12025452 C-56.65546387 223.21726624 -56.65546387 223.21726624 -57.61022949 222.29603577 C-72.81591187 206.50815384 -77.80637489 182.29086965 -81.29626465 161.46205139 C-81.8394661 158.45721382 -82.52393956 155.4944716 -83.24377441 152.52748108 C-84.51367808 146.10303257 -84.89418829 139.77772569 -84.95788574 133.24916077 C-84.96763428 132.41784637 -84.97738281 131.58653198 -84.98742676 130.73002625 C-85.16065864 112.12037458 -84.81568063 94.35881866 -80.71960449 76.12025452 C-80.53236816 75.23160706 -80.34513184 74.34295959 -80.15222168 73.42738342 C-75.24248272 50.30751595 -66.56198781 27.57422304 -45.98132324 13.97132874 C-38.22025231 9.1372784 -30.14390227 4.89175852 -21.28210449 2.49525452 C-19.98466309 2.13560608 -19.98466309 2.13560608 -18.66101074 1.76869202 C-12.43255011 0.39561836 -6.36623352 -0.00449593 0 0 Z " fill="#3675AA" transform="translate(85.7196044921875,130.87974548339844)"/>
<path d="M0 0 C0 11.88 0 23.76 0 36 C1.32 36.66 2.64 37.32 4 38 C10.12851688 44.71218515 11.47363419 48.73881461 11.3125 57.7421875 C10.63794904 64.77438128 7.15825751 69.28771277 2.26953125 74.1640625 C-2.67724919 81.31786806 -0.96223974 107.01823316 -1 108 C-22.12 108 -43.24 108 -65 108 C-65.061875 98.38875 -65.12375 88.7775 -65.1875 78.875 C-65.21481201 75.87003418 -65.24212402 72.86506836 -65.27026367 69.76904297 C-65.27903895 67.34342855 -65.28668041 64.91780965 -65.29296875 62.4921875 C-65.30831665 61.26830322 -65.32366455 60.04441895 -65.33947754 58.78344727 C-65.34355425 45.10472536 -63.44892416 31.19241377 -53.92578125 20.71875 C-49.1006775 16.2052149 -43.94850029 12.83400095 -38 10 C-37.17628906 9.59136719 -36.35257813 9.18273438 -35.50390625 8.76171875 C-28.88654808 5.72993621 -22.11566972 3.88122858 -15.0625 2.1875 C-13.69399902 1.85878906 -13.69399902 1.85878906 -12.29785156 1.5234375 C-7.97054352 0.53012725 -4.50992679 0 0 0 Z " fill="#3773A6" transform="translate(198,8)"/>
<path d="M0 0 C5.08939077 3.50114986 8.34036595 7.68742088 10.265625 13.55859375 C11.1378054 20.91127738 10.84940408 27.53227243 6.265625 33.55859375 C1.09338866 39.17891987 -4.80980156 42.59920501 -12.546875 43.05859375 C-18.97779549 42.84292264 -24.52360548 40.35457486 -29.3671875 36.13671875 C-34.60340989 30.30475848 -36.39297354 24.00102431 -36.140625 16.3359375 C-35.17819951 9.75627861 -31.89725469 5.16926078 -26.734375 1.12109375 C-17.82802098 -4.85510291 -9.48189636 -5.26275065 0 0 Z " fill="#FFFEFC" transform="translate(337.734375,422.44140625)"/>
<path d="M0 0 C6.11255408 2.76012616 11.04790281 8.11104927 13.515625 14.34765625 C14.38117774 21.95646872 14.3362278 29.11926679 9.515625 35.34765625 C4.1908239 41.25211924 -2.03698306 44.36184156 -9.984375 44.78515625 C-16.240869 44.54784096 -20.69622205 41.93712554 -25.296875 37.84765625 C-30.52963048 31.86736427 -33.03347291 26.73723133 -32.7890625 18.64453125 C-31.8476915 11.54804216 -27.79763919 7.25528047 -22.484375 2.79296875 C-15.92056766 -1.95040765 -7.75980427 -2.03755867 0 0 Z " fill="#FCFDFE" transform="translate(195.484375,41.65234375)"/>
</svg>
