<?xml version="1.0" encoding="UTF-8"?>
<svg version="1.1" xmlns="http://www.w3.org/2000/svg" width="447" height="447">
<path d="M0 0 C147.51 0 295.02 0 447 0 C447 147.51 447 295.02 447 447 C299.49 447 151.98 447 0 447 C0 299.49 0 151.98 0 0 Z " fill="#1A5AB7" transform="translate(0,0)"/>
<path d="M0 0 C147.51 0 295.02 0 447 0 C447 147.51 447 295.02 447 447 C299.49 447 151.98 447 0 447 C0 299.49 0 151.98 0 0 Z M146.25 49.75 C145.52905151 49.83581329 144.80810303 49.92162659 144.06530762 50.01004028 C106.43774976 53.19111726 106.43774976 53.19111726 75.08027685 70.99782312 C72.79944573 75.22509814 73.31423828 80.05949276 73.35835266 84.74641418 C73.34984714 85.93758793 73.34134162 87.12876168 73.33257836 88.3560316 C73.31416472 91.65485346 73.31813673 94.9522618 73.33171761 98.25101531 C73.34097724 101.81150199 73.32147829 105.3718489 73.30574036 108.93229675 C73.27965313 115.9049549 73.28074147 122.87735519 73.29177854 129.85004357 C73.30033886 135.51870785 73.29950469 141.18729757 73.29198265 146.85596275 C73.29092776 147.66295679 73.28987287 148.46995083 73.28878602 149.30139923 C73.28661507 150.94086246 73.28442829 152.58032568 73.28222587 154.21978887 C73.26279491 169.59421688 73.27479402 184.96850033 73.29701182 200.34291651 C73.31525394 213.52697255 73.30437148 226.71074843 73.27270508 239.89477539 C73.23592238 255.20976138 73.21892849 270.5245724 73.23211735 285.83960265 C73.23345843 287.47393172 73.23476741 289.10826082 73.23604393 290.74258995 C73.2366746 291.54667381 73.23730526 292.35075768 73.23795504 293.17920772 C73.24097956 298.83772905 73.2297338 304.49611819 73.21279335 310.15461159 C73.1924443 317.05559486 73.193374 323.95618305 73.22142575 330.85714582 C73.23517713 334.37642891 73.23943013 337.8950229 73.21747589 341.41427994 C73.19396214 345.23409493 73.21718339 349.05282976 73.24482727 352.87263489 C73.23076082 353.9784835 73.21669437 355.08433211 73.20220166 356.22369128 C73.31065141 363.66570721 75.07310351 368.37317308 80 374 C82.32874053 376.08429253 82.32874053 376.08429253 84.8125 377.3125 C86.12154297 378.01826172 86.12154297 378.01826172 87.45703125 378.73828125 C88.29621094 379.15464844 89.13539062 379.57101562 90 380 C90.99580078 380.51626953 90.99580078 380.51626953 92.01171875 381.04296875 C102.08567402 385.89192561 113.65572771 389.79211923 124.68945312 391.59814453 C126.8064432 391.96633617 128.87152422 392.42340863 130.9609375 392.921875 C182.36852707 404.43111535 245.73802062 406.07153895 297.3984375 395.71875 C300.96641878 395.00670167 304.51909684 394.47972104 308.125 394 C327.96688038 391.19772988 353.86572134 386.44051716 369 372 C373.51230352 365.81527603 373.57033491 360.62315509 373.5146637 353.11314392 C373.52508199 351.32192662 373.52508199 351.32192662 373.53571075 349.49452311 C373.5508112 346.19234782 373.54804685 342.89107609 373.53755772 339.58894193 C373.53055505 336.02309691 373.54657156 332.45734326 373.55955505 328.89152527 C373.58118128 321.91135032 373.58107194 314.93133849 373.57292951 307.95114105 C373.56662694 302.27819284 373.56776889 296.60529215 373.57420158 290.93234444 C373.57555407 289.72075736 373.57555407 289.72075736 373.57693387 288.48469378 C373.57878509 286.8437749 373.58064765 285.20285602 373.58252143 283.56193716 C373.5990946 268.17998505 373.59038427 252.79812471 373.57353585 237.41617811 C373.55883396 223.34296814 373.57347497 209.26997157 373.60230602 195.19678908 C373.63169487 180.74365658 373.64267414 166.2906226 373.63312382 151.83746153 C373.63210127 150.20292097 373.63110666 148.56838039 373.6301403 146.9338398 C373.62942572 145.72752328 373.62942572 145.72752328 373.6286967 144.49683673 C373.62653218 138.8303975 373.63633843 133.16405153 373.65091133 127.49763298 C373.66842218 120.5926066 373.66833519 113.68785247 373.64555968 106.78283685 C373.63440681 103.25993955 373.63127792 99.73752212 373.64986038 96.21464539 C373.6697432 92.396136 373.65090442 88.5783789 373.62818909 84.75987244 C373.64002482 83.64596742 373.65186054 82.53206241 373.66405493 81.38440269 C373.62703384 74.91309662 373.62703384 74.91309662 370.62675381 69.37487125 C367.99595589 66.99634368 365.69044804 65.40886925 362.5 63.875 C361.5821875 63.41867188 360.664375 62.96234375 359.71875 62.4921875 C350.46864423 58.53255075 340.61616443 56.27733267 330.75 54.5 C329.6161084 54.2927832 328.4822168 54.08556641 327.31396484 53.87207031 C317.78691162 52.19316983 308.22675291 50.90654877 298.625 49.75 C297.9378894 49.66709717 297.25077881 49.58419434 296.54284668 49.4987793 C292.03236372 48.96062586 287.52182773 48.43303476 283 48 C282.08833069 47.91183014 281.17666138 47.82366028 280.23736572 47.7328186 C271.12087488 46.93641696 262.04774738 46.85361373 252.90625 46.8671875 C251.26794419 46.86651067 249.62963848 46.86553752 247.99133301 46.86428833 C244.56566405 46.86282251 241.14002134 46.86492527 237.71435547 46.86962891 C233.41744986 46.87525405 229.1206071 46.87198045 224.82370377 46.86620331 C185.45819214 46.68140665 185.45819214 46.68140665 146.25 49.75 Z " fill="#FEFEFE" transform="translate(0,0)"/>
<path d="M0 0 C3.33832653 -0.00439671 6.67639639 -0.0183812 10.01464844 -0.04101562 C31.08706023 -0.18082686 51.57855326 0.54061477 72.50732422 3.24023438 C74.53922937 3.48787749 76.57128783 3.73426674 78.60351562 3.97924805 C88.35230946 5.15664599 97.99484592 6.80035933 107.63232422 8.67773438 C108.6394043 8.87093262 109.64648438 9.06413086 110.68408203 9.26318359 C137.76393365 14.74267124 137.76393365 14.74267124 145.43322217 24.23559308 C147.70947427 28.48385698 147.16980958 33.34544454 147.1085968 38.04721069 C147.11286893 39.24473453 147.11714105 40.44225837 147.12154263 41.67607081 C147.1283475 44.99232733 147.11275244 48.30710381 147.08765233 51.6231811 C147.06603777 55.20184049 147.07336844 58.78045507 147.0771637 62.35916138 C147.07978407 68.55682554 147.06411137 74.75422628 147.0359745 80.95182419 C146.99532014 89.91243744 146.98231532 98.87292347 146.97603454 107.83361895 C146.96509438 122.37206164 146.93182778 136.91036398 146.88452148 151.44873047 C146.83861867 165.57046812 146.8032303 179.69216764 146.78198242 193.81396484 C146.7806688 194.68459121 146.77935519 195.55521758 146.77800176 196.45222656 C146.77147652 200.81995132 146.765158 205.18767635 146.75894225 209.55540156 C146.70711791 245.78377827 146.61906023 282.01199539 146.50732422 318.24023438 C146.17732422 318.24023438 145.84732422 318.24023438 145.50732422 318.24023438 C145.01232422 211.32023437 145.01232422 211.32023437 144.50732422 102.24023438 C143.18732422 103.89023438 141.86732422 105.54023438 140.50732422 107.24023438 C136.7186636 109.67999106 132.62927 111.43177275 128.50732422 113.24023438 C127.55728516 113.66304688 126.60724609 114.08585937 125.62841797 114.52148438 C104.57933381 122.90885891 80.38785942 125.71484382 57.93408203 127.61791992 C55.77312508 127.80139283 53.61288354 127.99195895 51.45263672 128.18359375 C33.95856221 129.71569122 16.57181235 130.47668031 -0.99267578 130.49023438 C-2.54606155 130.4922435 -2.54606155 130.4922435 -4.13082886 130.49429321 C-25.35010355 130.4884094 -46.37951794 129.30604412 -67.49267578 127.24023438 C-68.65460449 127.12808594 -69.8165332 127.0159375 -71.01367188 126.90039062 C-133.14171424 120.59119591 -133.14171424 120.59119591 -151.49267578 102.24023438 C-151.49267578 173.52023438 -151.49267578 244.80023438 -151.49267578 318.24023438 C-151.82267578 318.24023438 -152.15267578 318.24023438 -152.49267578 318.24023438 C-152.60709096 281.14332878 -152.69520928 244.04644973 -152.74800243 206.94940343 C-152.75425605 202.57092361 -152.76072765 198.19244414 -152.76733398 193.81396484 C-152.76864554 192.94227919 -152.76995709 192.07059354 -152.77130838 191.17249317 C-152.79307187 177.05359879 -152.83249858 162.93480607 -152.87843976 148.81597202 C-152.92517818 134.33145044 -152.95296564 119.84698215 -152.96311826 105.36238825 C-152.96998286 96.42275505 -152.9916729 87.4834092 -153.03225812 78.54386444 C-153.05866423 72.41576549 -153.06668164 66.28781534 -153.06018267 60.1596636 C-153.05697639 56.6226077 -153.06193108 53.08605433 -153.08870316 49.54908752 C-153.11751285 45.71494197 -153.10762689 41.88145279 -153.09394836 38.04721069 C-153.10851257 36.92853084 -153.12307678 35.80985099 -153.13808233 34.65727174 C-153.05688091 26.26328187 -153.05688091 26.26328187 -150.11232281 22.60996437 C-126.98445271 1.68851695 -78.71120591 1.62239038 -49.52001953 0.67773438 C-48.2926709 0.63722961 -47.06532227 0.59672485 -45.80078125 0.55499268 C-30.5366663 0.095934 -15.27013535 0.01714 0 0 Z " fill="#2C7AD4" transform="translate(226.49267578125,46.759765625)"/>
<path d="M0 0 C0.7852002 0.79220947 1.57040039 1.58441895 2.37939453 2.40063477 C21.60248062 21.46791607 56.49454568 24.60766103 81.875 28.1875 C83.05030273 28.35451416 84.22560547 28.52152832 85.43652344 28.69360352 C99.49229108 30.60235083 113.58697023 31.17890554 127.75 31.5625 C128.87332733 31.59327133 128.87332733 31.59327133 130.01934814 31.62466431 C135.01268217 31.75975025 140.00624006 31.88179698 145 32 C146.40040527 32.03722168 146.40040527 32.03722168 147.82910156 32.07519531 C183.33513205 32.95133743 220.53612804 29.76595583 255 21 C256.06541016 20.73799805 256.06541016 20.73799805 257.15234375 20.47070312 C270.770274 17.06015197 284.88730399 12.11269601 295 2 C295.66 1.34 296.32 0.68 297 0 C297.11599503 10.70084409 297.20476679 21.40153792 297.25906086 32.10288334 C297.28512319 37.0723146 297.32045976 42.04131483 297.37719727 47.01049805 C297.43163707 51.80862586 297.46144584 56.60633984 297.47438622 61.40475273 C297.48360464 63.2327774 297.50160641 65.06078014 297.52865028 66.88862801 C297.56510072 69.45497193 297.56993883 72.01961933 297.56762695 74.58618164 C297.58560333 75.33712601 297.60357971 76.08807037 297.62210083 76.86177063 C297.56752691 82.48324377 295.77387087 85.86620684 292 90 C272.04504082 106.31380384 240.98336998 109.6457881 216.28564453 112.67456055 C214.69117724 112.90158735 213.10390603 113.18286188 211.52587891 113.50488281 C164.46765167 122.72913226 98.61590738 121.3727677 52.45532227 107.66918945 C49.89705976 106.971944 47.3700592 106.52358704 44.75 106.125 C31.24935769 103.80397267 11.12998453 98.09622213 2.38801575 86.90989685 C-0.46742146 82.80197159 -0.6848686 79.48382839 -0.56762695 74.58618164 C-0.56835709 73.7756131 -0.56908722 72.96504456 -0.56983948 72.12991333 C-0.56637883 69.47262718 -0.52759248 66.81713299 -0.48828125 64.16015625 C-0.47894764 62.30929013 -0.47183412 60.45841161 -0.46684265 58.60752869 C-0.44781589 53.75256831 -0.39875268 48.89836419 -0.34332275 44.04370117 C-0.29203671 39.08327462 -0.26930868 34.12272503 -0.24414062 29.16210938 C-0.19062948 19.44107526 -0.10536939 9.72060069 0 0 Z " fill="#103F8C" transform="translate(75,284)"/>
<path d="M0 0 C3.33832653 -0.00439671 6.67639639 -0.0183812 10.01464844 -0.04101562 C31.08706023 -0.18082686 51.57855326 0.54061477 72.50732422 3.24023438 C74.53922937 3.48787749 76.57128783 3.73426674 78.60351562 3.97924805 C88.35230946 5.15664599 97.99484592 6.80035933 107.63232422 8.67773438 C108.6394043 8.87093262 109.64648438 9.06413086 110.68408203 9.26318359 C137.76393365 14.74267124 137.76393365 14.74267124 145.43322217 24.23559308 C147.70947427 28.48385698 147.16980958 33.34544454 147.1085968 38.04721069 C147.11286893 39.24473453 147.11714105 40.44225837 147.12154263 41.67607081 C147.1283475 44.99232733 147.11275244 48.30710381 147.08765233 51.6231811 C147.06603777 55.20184049 147.07336844 58.78045507 147.0771637 62.35916138 C147.07978407 68.55682554 147.06411137 74.75422628 147.0359745 80.95182419 C146.99532014 89.91243744 146.98231532 98.87292347 146.97603454 107.83361895 C146.96509438 122.37206164 146.93182778 136.91036398 146.88452148 151.44873047 C146.83861867 165.57046812 146.8032303 179.69216764 146.78198242 193.81396484 C146.7806688 194.68459121 146.77935519 195.55521758 146.77800176 196.45222656 C146.77147652 200.81995132 146.765158 205.18767635 146.75894225 209.55540156 C146.70711791 245.78377827 146.61906023 282.01199539 146.50732422 318.24023438 C146.17732422 318.24023438 145.84732422 318.24023438 145.50732422 318.24023438 C145.01232422 176.67023438 145.01232422 176.67023438 144.50732422 32.24023438 C142.85732422 33.56023437 141.20732422 34.88023438 139.50732422 36.24023438 C127.17868044 43.59000278 111.7796047 46.10421067 97.83789062 48.7890625 C96.30601178 49.0856173 94.77681056 49.39642297 93.25097656 49.72265625 C62.32927158 55.97689759 29.6813176 55.6336654 -1.7566452 55.61629486 C-4.07468906 55.61525368 -6.39271218 55.61755028 -8.71075439 55.62017822 C-25.15367435 55.62704285 -41.53892829 55.27583807 -57.95361328 54.27929688 C-59.02300581 54.21499544 -59.02300581 54.21499544 -60.11400223 54.14939499 C-72.20599908 53.40570891 -72.20599908 53.40570891 -76.49267578 52.24023438 C-78.41121276 52.08284824 -80.33236306 51.9561437 -82.25439453 51.84960938 C-90.04453553 51.28843211 -97.64634837 49.9585474 -105.30517578 48.49023438 C-106.00789612 48.35706818 -106.71061646 48.22390198 -107.43463135 48.08670044 C-141.05380275 41.6791074 -141.05380275 41.6791074 -150.49267578 32.24023438 C-150.82267578 126.62023437 -151.15267578 221.00023437 -151.49267578 318.24023438 C-151.82267578 318.24023438 -152.15267578 318.24023438 -152.49267578 318.24023438 C-152.60709096 281.14332878 -152.69520928 244.04644973 -152.74800243 206.94940343 C-152.75425605 202.57092361 -152.76072765 198.19244414 -152.76733398 193.81396484 C-152.76864554 192.94227919 -152.76995709 192.07059354 -152.77130838 191.17249317 C-152.79307187 177.05359879 -152.83249858 162.93480607 -152.87843976 148.81597202 C-152.92517818 134.33145044 -152.95296564 119.84698215 -152.96311826 105.36238825 C-152.96998286 96.42275505 -152.9916729 87.4834092 -153.03225812 78.54386444 C-153.05866423 72.41576549 -153.06668164 66.28781534 -153.06018267 60.1596636 C-153.05697639 56.6226077 -153.06193108 53.08605433 -153.08870316 49.54908752 C-153.11751285 45.71494197 -153.10762689 41.88145279 -153.09394836 38.04721069 C-153.10851257 36.92853084 -153.12307678 35.80985099 -153.13808233 34.65727174 C-153.05688091 26.26328187 -153.05688091 26.26328187 -150.11232281 22.60996437 C-126.98445271 1.68851695 -78.71120591 1.62239038 -49.52001953 0.67773438 C-48.2926709 0.63722961 -47.06532227 0.59672485 -45.80078125 0.55499268 C-30.5366663 0.095934 -15.27013535 0.01714 0 0 Z " fill="#46A4EC" transform="translate(226.49267578125,46.759765625)"/>
<path d="M0 0 C5.9516055 4.93058227 9.58394363 9.89105645 12.3515625 17.08203125 C12.7846875 18.17515625 13.2178125 19.26828125 13.6640625 20.39453125 C15.64621539 31.02607855 15.26649626 43.5484418 9.59375 53.015625 C8.3653902 54.72886366 7.09658909 56.41431694 5.77734375 58.05859375 C4.06356177 60.07820419 4.06356177 60.07820419 4.3515625 63.08203125 C6.11954245 64.91781693 6.11954245 64.91781693 8.3515625 66.64453125 C9.71948365 67.74884259 11.06184619 68.88731637 12.3515625 70.08203125 C12.3515625 70.74203125 12.3515625 71.40203125 12.3515625 72.08203125 C12.9084375 72.28828125 13.4653125 72.49453125 14.0390625 72.70703125 C17.26115769 74.62287164 18.99660836 77.1686054 21.3515625 80.08203125 C-0.43994443 81.59264051 -0.43994443 81.59264051 -5.578125 78.078125 C-6.82694178 76.42253595 -8.05774919 74.75319773 -9.26953125 73.0703125 C-13.43362726 69.58997609 -18.36335891 70.63731038 -23.55297852 70.89526367 C-30.37096014 71.21564366 -35.54718894 70.33674659 -41.6484375 67.08203125 C-42.298125 66.74300781 -42.9478125 66.40398437 -43.6171875 66.0546875 C-50.82436495 61.61342245 -56.16136706 53.36947474 -58.20703125 45.23828125 C-60.12011023 31.55892003 -59.94222805 18.86608145 -51.6640625 7.3125 C-39.36347114 -7.5834289 -15.94398634 -11.54645618 0 0 Z " fill="#FAFCFC" transform="translate(250.6484375,209.91796875)"/>
<path d="M0 0 C1.28197266 -0.00483398 1.28197266 -0.00483398 2.58984375 -0.00976562 C7.99383713 0.03589023 11.39685128 0.74731465 16.875 2.3125 C16.875 7.5925 16.875 12.8725 16.875 18.3125 C15.885 17.6525 14.895 16.9925 13.875 16.3125 C9.55461695 14.12899706 5.38583152 13.89652275 0.625 13.875 C-0.42107422 13.86049805 -0.42107422 13.86049805 -1.48828125 13.84570312 C-4.60173694 13.89669421 -6.8260697 14.14849358 -9.57421875 15.65625 C-11.3945808 17.30496425 -11.3945808 17.30496425 -11.6875 20.25 C-10.93225859 24.36186988 -9.53012209 24.95233601 -6.125 27.3125 C-3.56678022 28.68433966 -0.94367729 29.90045981 1.6875 31.125 C15.71735056 37.9106065 15.71735056 37.9106065 19.04296875 44.6953125 C21.12135045 51.23294508 20.60438331 57.54561699 17.75 63.75 C14.73484627 69.01402531 11.88615476 71.36790488 6.0234375 73.20703125 C-4.63056009 75.99130986 -15.48943417 76.58187697 -26.125 73.3125 C-27.115 72.6525 -28.105 71.9925 -29.125 71.3125 C-29.34607787 68.5239711 -29.40607535 65.96596819 -29.3125 63.1875 C-29.29896484 62.43339844 -29.28542969 61.67929687 -29.27148438 60.90234375 C-29.23609985 59.03875873 -29.18229167 57.17554022 -29.125 55.3125 C-28.62871094 55.57804687 -28.13242188 55.84359375 -27.62109375 56.1171875 C-19.40813166 60.38730441 -11.96275937 62.82599317 -2.75 60.4375 C-0.02828368 59.46337746 -0.02828368 59.46337746 1.875 57.3125 C2.04177282 53.72906024 2.04177282 53.72906024 1.875 50.3125 C1.359375 50.065 0.84375 49.8175 0.3125 49.5625 C-1.6213111 48.570802 -3.50827872 47.48785307 -5.375 46.375 C-7.88987364 44.91111833 -10.30340075 43.853586 -13.0625 42.9375 C-18.92324151 40.83218509 -23.26501998 37.17248002 -27.625 32.8125 C-30.0349832 27.18920586 -29.88470783 21.33540894 -29.125 15.3125 C-27.59938892 11.60360972 -26.04346135 8.74943406 -23 6.125 C-22.48179687 5.65707031 -21.96359375 5.18914062 -21.4296875 4.70703125 C-14.64553399 0.60204345 -7.78576402 -0.14813097 0 0 Z " fill="#F9FBFC" transform="translate(164.125,204.6875)"/>
<path d="M0 0 C5.28 0 10.56 0 16 0 C16 19.47 16 38.94 16 59 C24.91 59 33.82 59 43 59 C43 63.29 43 67.58 43 72 C28.81 72 14.62 72 0 72 C0 48.24 0 24.48 0 0 Z " fill="#FCFDFD" transform="translate(279,206)"/>
<path d="M0 0 C6.46013065 6.3133095 8.17185809 12.60591733 8.375 21.5 C8.19669475 29.65341278 6.97821682 36.02178318 1 42 C-4.4175627 45.92773296 -10.57001703 45.79491548 -17 45 C-22.12958415 42.52680764 -25.67644935 39.13562213 -27.91015625 33.84375 C-30.66319419 25.75109895 -31.61256718 16.93234708 -28.109375 8.91796875 C-25.31073016 4.07946658 -22.03598086 0.01799043 -17 -2.5 C-10.47657095 -3.58723818 -5.86038296 -3.25576831 0 0 Z " fill="#1C5CB8" transform="translate(239,221)"/>
<path d="M0 0 C0.66 0 1.32 0 2 0 C3.44977894 2.34112451 4.04314411 3.5796929 3.7578125 6.359375 C3.54898438 7.14828125 3.34015625 7.9371875 3.125 8.75 C2.92132813 9.54921875 2.71765625 10.3484375 2.5078125 11.171875 C2.34023437 11.77515625 2.17265625 12.3784375 2 13 C0 11 0 11 -0.1953125 8.3984375 C-0.17210937 7.40070313 -0.14890625 6.40296875 -0.125 5.375 C-0.10695312 4.37210938 -0.08890625 3.36921875 -0.0703125 2.3359375 C-0.04710937 1.56507813 -0.02390625 0.79421875 0 0 Z " fill="#3770B8" transform="translate(209,236)"/>
<path d="M0 0 C3.3 0 6.6 0 10 0 C9.01 1.485 9.01 1.485 8 3 C4.92463146 2.34099246 2.92264434 1.46132217 0 0 Z " fill="#0F57B2" transform="translate(220,281)"/>
</svg>
